<svg width="25" height="25" viewBox="0 0 25 25" fill="none" xmlns="http://www.w3.org/2000/svg">
<circle cx="12.3823" cy="12.3823" r="11.3823" stroke="black" stroke-width="1.41176"/>
<path d="M6.63725 13.9218C6.46824 13.9218 6.30616 13.8547 6.18665 13.7351C6.06714 13.6156 6 13.4535 6 13.2845C6 13.1155 6.06714 12.9534 6.18665 12.8339C6.30616 12.7144 6.46824 12.6473 6.63725 12.6473H13.3284C13.9657 12.6473 14.6029 13.9218 14.2843 13.9218H6.63725ZM15.5588 13.9218C15.3898 13.9218 15.2277 13.8547 15.1082 13.7351C14.9887 13.6156 14.9216 13.4535 14.9216 13.2845C14.9216 13.1155 14.9887 12.9534 15.1082 12.8339C15.2277 12.7144 15.3898 12.6473 15.5588 12.6473H18.1078C18.2769 12.6473 18.4389 12.7144 18.5585 12.8339C18.678 12.9534 18.7451 13.1155 18.7451 13.2845C18.7451 13.4535 18.678 13.6156 18.5585 13.7351C18.4389 13.8547 18.2769 13.9218 18.1078 13.9218H15.5588ZM12.7759 5.31949C12.8603 5.17295 12.9994 5.06593 13.1626 5.02195C13.3259 4.97797 13.4999 5.00064 13.6464 5.08498C13.793 5.16931 13.9 5.3084 13.944 5.47165C13.9879 5.6349 13.9653 5.80893 13.8809 5.95547L9.47941 13.6C9.43769 13.6725 9.38209 13.7362 9.31579 13.7872C9.24948 13.8383 9.17376 13.8758 9.09296 13.8976C9.01216 13.9194 8.92785 13.9251 8.84485 13.9143C8.76186 13.9035 8.6818 13.8765 8.60924 13.8348C8.53668 13.7931 8.47306 13.7375 8.42199 13.6712C8.37092 13.6049 8.33341 13.5292 8.31161 13.4484C8.2898 13.3676 8.28412 13.2832 8.2949 13.2002C8.30568 13.1173 8.33269 13.0372 8.37441 12.9646L12.7759 5.31949ZM7.27451 14.8777C7.59314 14.2404 9.5049 13.6032 8.86765 14.6992C8.52188 15.2904 8.175 15.8809 7.82701 16.4708C7.74267 16.6173 7.60358 16.7244 7.44033 16.7683C7.27708 16.8123 7.10305 16.7897 6.95652 16.7053C6.80999 16.621 6.70296 16.4819 6.65898 16.3186C6.615 16.1554 6.63767 15.9814 6.72201 15.8348L7.27451 14.8777ZM10.5455 5.95547C10.4612 5.80893 10.4385 5.6349 10.4825 5.47165C10.5265 5.3084 10.6335 5.16931 10.78 5.08498C10.9266 5.00064 11.1006 4.97797 11.2639 5.02195C11.4271 5.06593 11.5662 5.17295 11.6505 5.31949L12.7613 7.24973C12.8044 7.3223 12.8326 7.40271 12.8444 7.48629C12.8561 7.56986 12.8512 7.65494 12.8298 7.73658C12.8084 7.81822 12.771 7.8948 12.7197 7.96188C12.6685 8.02895 12.6045 8.08517 12.5313 8.12729C12.4582 8.16941 12.3774 8.19658 12.2937 8.20723C12.21 8.21787 12.125 8.21178 12.0436 8.18931C11.9623 8.16683 11.8862 8.12842 11.8198 8.0763C11.7534 8.02419 11.6981 7.9594 11.6569 7.88571L10.5455 5.95547ZM13.0098 10.4169C12.4375 9.46101 13.0098 7.54924 13.4661 8.50257L17.7038 15.8336C17.7855 15.9798 17.8063 16.1524 17.7617 16.3139C17.717 16.4754 17.6106 16.6128 17.4654 16.6964C17.3202 16.78 17.148 16.8031 16.9859 16.7606C16.8238 16.7182 16.685 16.6136 16.5995 16.4695L13.0098 10.4169Z" fill="black"/>
</svg>
