<svg width="24" height="22" viewBox="0 0 24 22" fill="none" xmlns="http://www.w3.org/2000/svg">
<path d="M11.9995 15.8162C11.9995 15.7009 12.0437 15.8309 12.139 16.1103C12.6531 17.6262 14.6619 23.5403 19.2542 18.8121C21.6725 16.3227 20.5531 13.8339 16.1513 13.0821C18.669 13.5115 21.5007 12.8015 22.2772 10.0162C22.5007 9.21505 22.8819 4.27976 22.8819 3.61329C22.8819 0.274465 19.9642 1.32388 18.1642 2.67976C15.669 4.55917 12.9848 8.36976 11.9995 10.4151C11.0142 8.36976 8.33013 4.55976 5.83483 2.67976C4.03483 1.32388 1.11719 0.275053 1.11719 3.61329C1.11719 4.27976 1.49778 9.21505 1.72189 10.0162C2.49836 12.8015 5.32954 13.5121 7.84778 13.0821C3.44601 13.8339 2.3266 16.3233 4.74483 18.8121C9.33719 23.5403 11.346 17.6262 11.8601 16.1109C11.9554 15.8309 11.9995 15.7009 11.9995 15.8162Z" stroke="black" stroke-width="1.41176" stroke-linecap="round" stroke-linejoin="round"/>
</svg>
