<svg width="28" height="22" viewBox="0 0 28 22" fill="none" xmlns="http://www.w3.org/2000/svg">
<path d="M9.75589 17.8078C9.14933 18.6924 8.49972 19.5468 7.80939 20.3677C2.87292 20.2272 1 17.0232 1 17.0232C1.06947 12.4834 2.16963 8.01865 4.2174 3.96629C6.01686 2.55855 8.20948 1.74509 10.4917 1.63853L11.1606 3.18368C12.116 3.05165 13.079 2.98238 14.0435 2.97632C15.0123 2.97958 15.9799 3.04662 16.9399 3.17699L17.6088 1.63184C19.8932 1.74417 22.086 2.56473 23.883 3.97967C25.9242 8.02908 27.0197 12.4889 27.0871 17.0232C27.0871 17.0232 25.2141 20.2272 20.2777 20.3677C19.5973 19.5511 18.9588 18.7005 18.3646 17.8192M22.6857 15.8794C20.1171 17.1804 17.6322 18.4814 14.0435 18.4814C10.4549 18.4814 7.96993 17.1804 5.40135 15.8794" stroke="black" stroke-width="1.4" stroke-linecap="round" stroke-linejoin="round"/>
<path d="M9.24081 14.4816C10.4784 14.4816 11.4816 13.4784 11.4816 12.2408C11.4816 11.0032 10.4784 10 9.24081 10C8.00325 10 7 11.0032 7 12.2408C7 13.4784 8.00325 14.4816 9.24081 14.4816Z" stroke="black" stroke-width="1.4" stroke-linecap="round" stroke-linejoin="round"/>
<path d="M18.2408 14.4816C19.4784 14.4816 20.4816 13.4784 20.4816 12.2408C20.4816 11.0032 19.4784 10 18.2408 10C17.0032 10 16 11.0032 16 12.2408C16 13.4784 17.0032 14.4816 18.2408 14.4816Z" stroke="black" stroke-width="1.4" stroke-linecap="round" stroke-linejoin="round"/>
</svg>
