<svg width="24" height="17" viewBox="0 0 24 17" fill="none" xmlns="http://www.w3.org/2000/svg">
<path fill-rule="evenodd" clip-rule="evenodd" d="M0.999206 0.742858C1.45515 0.286911 2.07355 0.0307617 2.71836 0.0307617H21.2809C21.9257 0.0307617 22.5441 0.286911 23 0.742858C23.456 1.19881 23.7121 1.8172 23.7121 2.46201V14.2745C23.7121 14.9193 23.456 15.5377 23 15.9937C22.5441 16.4496 21.9257 16.7058 21.2809 16.7058H2.71836C2.07355 16.7058 1.45515 16.4496 0.999206 15.9937C0.543258 15.5377 0.287109 14.9193 0.287109 14.2745V2.46201C0.287109 1.8172 0.543258 1.19881 0.999206 0.742858ZM2.91474 1.51826L11.3956 8.58851C11.5652 8.72976 11.7789 8.80713 11.9996 8.80713C12.2203 8.80713 12.434 8.72978 12.6036 8.58854L21.0845 1.51826H2.91474ZM1.77461 2.50163V14.2745C1.77461 14.5248 1.87404 14.7649 2.05103 14.9418C2.22802 15.1188 2.46806 15.2183 2.71836 15.2183H21.2809C21.5312 15.2183 21.7712 15.1188 21.9482 14.9418C22.1252 14.7649 22.2246 14.5248 22.2246 14.2745V2.50163L13.5556 9.7258C13.1187 10.0897 12.5682 10.2889 11.9996 10.2889C11.4311 10.2889 10.8805 10.0897 10.4436 9.7258L1.77461 2.50163Z" fill="black"/>
</svg>
