<svg width="22" height="22" viewBox="0 0 22 22" fill="none" xmlns="http://www.w3.org/2000/svg">
<mask id="mask0_1046_829" style="mask-type:luminance" maskUnits="userSpaceOnUse" x="0" y="0" width="22" height="22">
<path d="M0.331543 0.337568H21.6649V21.6709H0.331543V0.337568Z" fill="white"/>
</mask>
<g mask="url(#mask0_1046_829)">
<path d="M20.8299 11.0041C20.8278 11.881 20.8179 12.7579 20.8059 13.6348C20.7914 14.6928 20.7751 15.7512 20.5097 16.791C20.2315 17.8814 19.6828 18.8219 18.829 19.5181C17.9294 20.2517 16.8419 20.6374 15.6683 20.7087C14.1116 20.8034 12.5543 20.8408 10.997 20.8372C9.43965 20.8408 7.88231 20.8034 6.32569 20.7087C5.15202 20.6374 4.0646 20.2517 3.16494 19.5181C2.31119 18.8219 1.76244 17.8814 1.48419 16.791C1.21885 15.7512 1.20252 14.6928 1.18806 13.6348C1.17606 12.7579 1.1661 11.881 1.16406 11.0041C1.1661 10.1272 1.17606 9.2502 1.18806 8.37332C1.20252 7.31537 1.21885 6.25695 1.48419 5.21712C1.76244 4.1267 2.31119 3.18628 3.16494 2.49007C4.0646 1.75641 5.15202 1.37078 6.32569 1.29941C7.88231 1.20474 9.43965 1.16732 10.997 1.17099C12.5543 1.16732 14.1116 1.20474 15.6683 1.29941C16.8419 1.37078 17.9294 1.75641 18.829 2.49007C19.6828 3.18628 20.2315 4.1267 20.5097 5.21712C20.7751 6.25695 20.7914 7.31537 20.8059 8.37332C20.8179 9.2502 20.8278 10.1272 20.8299 11.0041Z" stroke="black" stroke-width="1.66667" stroke-miterlimit="10"/>
<path d="M15.3311 11.0049C15.3311 13.4211 13.3723 15.3799 10.9561 15.3799C8.5398 15.3799 6.58105 13.4211 6.58105 11.0049C6.58105 8.58863 8.5398 6.62988 10.9561 6.62988C13.3723 6.62988 15.3311 8.58863 15.3311 11.0049Z" stroke="black" stroke-width="1.66667" stroke-miterlimit="10"/>
<path d="M17.9985 5.37988C17.9985 6.07022 17.4389 6.62988 16.7485 6.62988C16.0582 6.62988 15.4985 6.07022 15.4985 5.37988C15.4985 4.68955 16.0582 4.12988 16.7485 4.12988C17.4389 4.12988 17.9985 4.68955 17.9985 5.37988Z" fill="black"/>
</g>
</svg>
