<svg width="28" height="11" viewBox="0 0 28 11" fill="none" xmlns="http://www.w3.org/2000/svg">
<path d="M5.9876 7.13517C6.47017 7.026 6.91562 6.79202 7.27937 6.45664C7.40554 6.34105 7.51907 6.22752 7.61966 6.11223C7.64907 6.18987 7.68084 6.25929 7.71231 6.32017C7.84672 6.56576 8.03789 6.67076 8.28142 6.63723C8.48113 6.60987 8.62172 6.53635 8.69966 6.4187C8.77907 6.29899 8.83407 6.08488 8.86348 5.77164C8.90341 5.39832 8.96727 5.02795 9.05466 4.66282C9.14495 4.28252 9.24789 3.96723 9.36554 3.71311C9.48319 3.46105 9.59025 3.3287 9.68672 3.31605C9.75819 3.30576 9.80025 3.35399 9.81495 3.45693C9.83172 3.58723 9.84231 3.86017 9.84643 4.28046C9.84437 4.75311 9.85907 5.11223 9.8926 5.35811C9.9326 5.64782 10.0188 5.88752 10.1511 6.07635C10.2855 6.26546 10.4579 6.34517 10.672 6.31811C10.8779 6.29076 11.0208 6.21929 11.1005 6.10164C11.1802 5.98605 11.235 5.76752 11.2644 5.4484C11.3085 5.04076 11.3841 4.65017 11.4911 4.27399C11.5985 3.89811 11.7141 3.59135 11.84 3.35399C11.9661 3.11664 12.0711 2.99252 12.155 2.98223C12.2264 2.97164 12.2685 3.01988 12.2832 3.12282C12.3041 3.2784 12.3 3.56399 12.2705 3.98193C12.2432 4.45899 12.2411 4.7887 12.2644 4.96929C12.3126 5.33076 12.4344 5.59546 12.6276 5.7634C12.8208 5.93135 13.0814 5.99252 13.4111 5.94811C13.8188 5.8937 14.1652 5.73635 14.4552 5.4734C14.5855 5.35576 14.7073 5.22576 14.827 5.08517C14.966 5.27555 15.1417 5.43616 15.3438 5.55752C15.6294 5.73193 15.9676 5.80752 16.3585 5.78664C16.8202 5.76135 17.2238 5.57429 17.5702 5.22782C17.9173 4.87899 18.1376 4.42958 18.23 3.87693C18.4947 3.85193 18.7467 3.80576 18.9841 3.74458C18.982 3.83929 18.98 3.9337 18.98 4.0284C18.98 4.60193 19.0302 5.01782 19.1311 5.2784C19.232 5.5387 19.4064 5.66899 19.6544 5.66899C19.8558 5.66899 20.005 5.61429 20.0997 5.50723C20.1941 5.39988 20.2761 5.19193 20.3476 4.88752C20.4441 4.49046 20.5741 4.11223 20.7341 3.75311C20.8935 3.39605 21.0491 3.10605 21.2023 2.88752C21.3558 2.66929 21.4735 2.55988 21.5597 2.55988C21.6308 2.55988 21.6667 2.61252 21.6667 2.71546C21.6667 2.85811 21.6267 3.19017 21.5491 3.71105C21.4588 4.30988 21.4126 4.74046 21.4126 5.00076C21.4126 5.22135 21.4608 5.38723 21.5597 5.4987C21.6582 5.61017 21.8138 5.66458 22.0279 5.66458C22.255 5.66458 22.4208 5.61017 22.5217 5.50282C22.6226 5.39576 22.6729 5.21723 22.6729 4.97135C22.6729 4.53458 22.6917 4.13958 22.7317 3.78458C22.7717 3.42958 22.822 3.0537 22.887 2.65664C22.9585 2.18811 22.9944 1.8687 22.9944 1.6987C22.9944 1.49076 22.9397 1.33311 22.8326 1.22399C22.7252 1.11693 22.5679 1.06223 22.3579 1.06223C22.1435 1.06223 21.9061 1.13782 21.65 1.28693C21.3935 1.43605 21.1311 1.68811 20.8644 2.03899C20.5976 2.38988 20.3558 2.84782 20.1417 3.40664C20.1667 3.12076 20.2005 2.87929 20.2382 2.68399C20.2782 2.4884 20.3285 2.25958 20.3938 1.99899C20.4902 1.6337 20.5408 1.40046 20.5408 1.29546C20.5408 1.20517 20.5155 1.14193 20.4629 1.11046C20.4105 1.07899 20.3202 1.06223 20.19 1.06223C19.9482 1.06223 19.7614 1.10635 19.6291 1.19458C19.4947 1.28282 19.4002 1.42135 19.3414 1.61046C19.2324 1.95535 19.1489 2.30777 19.0914 2.66488C18.7761 2.75517 18.4967 2.81605 18.2532 2.84546C18.1732 2.34782 17.9738 1.93605 17.6523 1.61046C17.3311 1.28488 16.9235 1.13576 16.43 1.16311C16.0381 1.18065 15.6604 1.31526 15.3458 1.54958C15.0267 1.78488 14.7829 2.10193 14.615 2.49899C14.4467 2.89605 14.3776 3.34135 14.4026 3.83517C14.4091 3.94399 14.4217 4.04929 14.4405 4.15223C14.3355 4.3034 14.2408 4.42752 14.1591 4.52193C14.0035 4.70458 13.8608 4.8034 13.7305 4.82017C13.5435 4.84546 13.4323 4.72988 13.3985 4.47164C13.3735 4.29076 13.3861 3.91076 13.4323 3.33282C13.4867 2.65635 13.4952 2.19017 13.4617 1.94017C13.405 1.52017 13.1676 1.33958 12.7473 1.39605C12.405 1.44252 12.0626 1.67135 11.7161 2.08723C11.3714 2.50105 11.09 3.12723 10.8738 3.96517C10.8779 3.84546 10.8885 3.66693 10.9094 3.42752C10.9597 2.8687 10.9702 2.48635 10.9429 2.28046C10.9135 2.06841 10.8464 1.91517 10.7391 1.82458C10.632 1.73429 10.4641 1.70282 10.2391 1.73429C10.0126 1.7637 9.78319 1.8834 9.55231 2.08723C9.32142 2.29311 9.10701 2.58517 8.91172 2.96752C8.71642 3.34782 8.56495 3.80135 8.45995 4.3287C8.44731 4.04076 8.44731 3.79929 8.45995 3.60399C8.4726 3.4087 8.49378 3.17752 8.52525 2.91076C8.57348 2.53693 8.59025 2.29723 8.5776 2.19429C8.56495 2.10399 8.53142 2.04517 8.47466 2.02017C8.41819 1.99488 8.32554 1.99076 8.1976 2.00752C7.95789 2.03899 7.77937 2.1084 7.6576 2.2134C7.53789 2.3184 7.46025 2.46752 7.42642 2.66282C7.29848 3.39605 7.28172 4.15223 7.36995 4.92958C7.20509 5.19167 7.0042 5.42929 6.77319 5.63546C6.45407 5.9187 6.15142 6.09311 5.86584 6.16046C5.42054 6.2634 5.08642 6.18546 4.85966 5.93135C5.56554 5.57429 6.04025 5.20487 6.28172 4.81811C6.52319 4.43164 6.59466 4.01988 6.49378 3.58076C6.4076 3.20693 6.22907 2.93605 5.95613 2.76782C5.68289 2.59988 5.36378 2.55782 4.99613 2.64399C4.58437 2.7384 4.23995 2.93605 3.96466 3.23223C3.68966 3.53046 3.5026 3.88752 3.40584 4.30752C3.30937 4.72782 3.31142 5.15635 3.41231 5.59546C3.42701 5.66252 3.44584 5.72546 3.46466 5.7887C3.12654 6.01649 2.7827 6.23567 2.43348 6.44605C2.00907 6.70017 1.85995 6.7737 1.75495 6.71487C1.56172 6.60576 1.64995 6.11635 1.73172 5.67723C2.23584 2.97576 2.31142 2.4234 2.01966 1.94664C1.95848 1.84576 1.67084 1.38135 1.19407 1.33517C0.845248 1.30164 0.473483 1.49488 0.288483 1.7784C-0.00769308 2.23223 0.353777 2.64605 0.540836 3.78046C0.645836 4.42105 0.654072 5.09752 0.64966 6.44605C0.647895 7.22546 0.614366 7.70017 0.943777 7.95635C1.28201 8.21899 1.79084 8.08458 1.84084 8.07193C2.18348 7.97752 2.34937 7.75899 2.68554 7.4187C2.93554 7.16458 3.30731 6.81576 3.81348 6.4334C3.98584 6.71488 4.18113 6.87046 4.30701 6.95458C4.93525 7.37223 5.67878 7.21046 5.98348 7.13929L5.9876 7.13517ZM15.8229 2.61046C15.9823 2.34988 16.1905 2.2134 16.4508 2.1987H16.4991C16.4844 2.30164 16.4802 2.40664 16.4864 2.50958C16.4991 2.75752 16.5664 2.9884 16.6861 3.20282C16.801 3.41407 16.9708 3.59038 17.1776 3.71311C17.142 4.03458 17.0538 4.28458 16.9108 4.46105C16.7679 4.63958 16.5914 4.73193 16.3835 4.74458C16.1947 4.75517 16.0264 4.66899 15.8752 4.4884C15.7261 4.30782 15.64 4.0387 15.6211 3.67958C15.5958 3.2237 15.6632 2.86664 15.8226 2.6084L15.8229 2.61046ZM4.55525 4.15635C4.65378 3.84546 4.82172 3.66488 5.05495 3.61017C5.16848 3.58282 5.26701 3.59988 5.35113 3.65635C5.43525 3.71311 5.48966 3.8034 5.51701 3.92311C5.57172 4.1584 5.51084 4.38958 5.33642 4.61635C5.16201 4.8434 4.89731 5.04488 4.54231 5.21929L4.53819 5.20046C4.44995 4.81399 4.45407 4.46517 4.55289 4.15429L4.55495 4.15635H4.55525ZM22.5829 7.80958C20.8395 7.73493 19.0936 7.73905 17.3505 7.82193C15.7497 7.89546 14.1488 8.02782 12.5564 8.21693C11.3467 8.36193 10.1388 8.54046 8.93937 8.75664C8.12437 8.9037 7.31348 9.06546 6.50701 9.25252C6.09731 9.34693 5.68142 9.43311 5.27789 9.55488C5.27378 9.55488 5.26966 9.55723 5.26319 9.55929C5.10995 9.60135 4.9126 9.74193 4.88731 9.91429C4.85995 10.0928 5.00907 10.2693 5.14348 10.3637C5.57848 10.6705 6.16231 10.7313 6.66642 10.5905C6.73584 10.5716 6.80525 10.5528 6.87437 10.5361L7.12025 10.4728C7.16642 10.4625 7.2126 10.4499 7.25878 10.4393C8.00672 10.2628 8.75878 10.1075 9.51495 9.96664C10.6648 9.75249 11.8205 9.57183 12.9808 9.42488C13.6826 9.33429 14.3841 9.25664 15.0879 9.19164L16.2223 9.09487C16.2644 9.09282 16.3041 9.0887 16.3461 9.08664C16.4238 9.08223 16.4994 9.07605 16.5773 9.07193L17.1864 9.03399C18.8982 8.93752 20.6126 8.91429 22.3267 8.96693C22.5494 8.97311 22.772 8.98164 22.9926 8.99193C23.2005 9.00046 23.4988 8.95017 23.6752 8.82605C23.8055 8.73576 23.9147 8.56987 23.8497 8.4037C23.6691 7.94605 23.0052 7.82605 22.5829 7.80958ZM26.5526 2.91488C26.9394 2.73017 27.2229 2.52429 27.4035 2.29311C27.5841 2.06429 27.6808 1.79958 27.6935 1.49899C27.7123 1.08958 27.5591 0.755464 27.2355 0.501346C26.912 0.24517 26.4729 0.104287 25.9205 0.0789932C25.2502 0.0475226 24.7147 0.17164 24.3094 0.451052C23.9061 0.728111 23.6917 1.12752 23.6685 1.64811C23.6572 1.889 23.7087 2.12868 23.8179 2.3437C23.9291 2.56635 24.0973 2.76135 24.3238 2.92958C23.9376 3.11458 23.6538 3.32046 23.4752 3.54517C23.3 3.7604 23.1985 4.02617 23.1855 4.3034C23.1644 4.74664 23.3261 5.09958 23.6685 5.36223C24.0111 5.62488 24.4985 5.77193 25.1305 5.80105C25.5802 5.82223 25.975 5.77164 26.3197 5.64988C26.6641 5.52811 26.935 5.34958 27.1305 5.11017C27.3279 4.87076 27.4329 4.58929 27.4476 4.2637C27.4729 3.71752 27.1747 3.26576 26.5505 2.91282L26.5526 2.91488ZM25.9497 4.73635C25.7691 4.83282 25.5255 4.87282 25.2211 4.85988C24.9479 4.84752 24.7338 4.78635 24.5802 4.67958C24.425 4.57223 24.3514 4.42517 24.3597 4.24458C24.3682 4.07458 24.4332 3.92105 24.557 3.78458C24.6811 3.64605 24.8952 3.51576 25.2 3.39399C25.6011 3.59546 25.8764 3.7637 26.0214 3.89988C26.1685 4.03664 26.2376 4.17752 26.2314 4.32046C26.2229 4.50282 26.1285 4.64164 25.9479 4.73811L25.9497 4.73635ZM26.2944 2.03488C26.1535 2.17135 25.9141 2.31429 25.5758 2.46135C25.0929 2.21135 24.8576 1.94017 24.87 1.64605C24.8805 1.43193 24.9688 1.27017 25.137 1.16517C25.305 1.05811 25.5255 1.01164 25.7988 1.02429C26.2923 1.04752 26.5317 1.23664 26.515 1.59576C26.5088 1.75105 26.4352 1.89811 26.2944 2.03488Z" fill="black"/>
</svg>
