<svg width="24" height="24" viewBox="0 0 24 24" fill="none" xmlns="http://www.w3.org/2000/svg">
<g clip-path="url(#clip0_1046_6172)">
<path d="M18.2245 23.3308C18.3218 23.3308 22.7219 23.3298 22.6256 23.3298C23.0166 23.3298 23.3339 23.0125 23.3339 22.6215C23.0034 15.201 25.0736 7.37061 17.348 7.37061C15.8624 7.37061 14.679 7.87777 13.8262 8.54833C13.8262 7.16849 12.3349 7.93161 8.89242 7.72666C8.50142 7.72666 8.18409 8.04399 8.18409 8.43499C8.46931 21.814 7.54753 23.3298 8.89242 23.3298H13.2935C14.5714 23.3298 13.7582 21.5278 14.0019 15.5967C14.0019 13.1468 14.7102 12.667 15.9342 12.667C17.2885 12.667 17.5161 13.6077 17.5161 15.7157C17.7589 21.5401 16.9514 23.3308 18.2245 23.3308ZM15.9342 11.2504C11.6927 11.2504 12.5852 15.9141 12.5852 21.9132H9.60075V9.14333H12.4095V10.3692C12.4095 11.0492 13.4456 11.3836 13.8064 10.6998C14.271 9.81766 15.478 8.78727 17.348 8.78727C20.6791 8.78727 21.9173 10.424 21.9173 14.8279V21.9141H18.9328C18.9328 15.167 19.6468 11.2504 15.9342 11.2504Z" fill="black"/>
<path d="M1.72732 7.72859C0.386205 7.72859 1.30421 9.22554 1.01898 22.6234C1.01898 23.0144 1.33632 23.3318 1.72732 23.3318H6.13315C7.47426 23.3318 6.55626 21.8348 6.84148 8.43693C6.84148 7.21387 5.06498 7.93543 1.72732 7.72859ZM5.42482 21.9151H2.43565V9.14526H5.42482V21.9151Z" fill="black"/>
<path d="M3.92698 0.666016C-0.394797 0.666016 -0.368352 7.21007 3.92698 7.21007C8.21948 7.21007 8.25348 0.666016 3.92698 0.666016ZM3.92698 5.7934C1.50165 5.7934 1.47898 2.08268 3.92698 2.08268C6.3797 2.08268 6.34854 5.7934 3.92698 5.7934Z" fill="black"/>
</g>
<defs>
<clipPath id="clip0_1046_6172">
<rect width="22.6667" height="22.6667" fill="white" transform="translate(0.666748 0.666504)"/>
</clipPath>
</defs>
</svg>
