<svg width="24" height="25" viewBox="0 0 24 25" fill="none" xmlns="http://www.w3.org/2000/svg">
<path d="M6.1167 14.1311V8.837C6.1167 5.30759 11.9991 5.30759 11.9991 8.837M11.9991 8.837V12.3664M11.9991 8.837C11.9991 5.30759 17.8814 5.30759 17.8814 8.837V14.1311" stroke="black" stroke-width="1.41176" stroke-linecap="round" stroke-linejoin="round"/>
<path d="M7.29258 18.2488C16.1161 19.4252 22.5867 18.2488 22.5867 13.5429V8.837C22.5867 2.36641 17.8808 1.18994 15.5279 1.18994H8.46905C4.93964 1.18994 1.33141 2.36641 1.57141 8.837C1.65847 11.1746 1.61376 13.9958 1.99847 17.0723C3.17494 26.4841 14.3514 23.5429 16.1161 22.9546V21.1899C16.1161 21.1899 6.70435 22.9546 7.29258 18.2488Z" stroke="black" stroke-width="1.41176" stroke-linecap="round" stroke-linejoin="round"/>
</svg>
