<svg width="25" height="23" viewBox="0 0 25 23" fill="none" xmlns="http://www.w3.org/2000/svg">
<g clip-path="url(#clip0_1056_9436)">
<path d="M6.72803 10.084C7.11612 10.084 7.43115 9.76894 7.43115 9.38085C7.43115 8.99276 7.11612 8.67773 6.72803 8.67773C6.33994 8.67773 6.0249 8.99276 6.0249 9.38085C6.0249 9.76894 6.33994 10.084 6.72803 10.084Z" fill="black"/>
<path fill-rule="evenodd" clip-rule="evenodd" d="M12.0976 0.256836C6.06912 0.559235 0.399902 4.90625 0.399902 10.7858C0.399902 13.2429 1.37219 15.6237 3.14209 17.51C3.49228 18.9536 3.06711 20.4838 2.01215 21.5387C1.8111 21.7398 1.75095 22.0422 1.85971 22.305C1.96848 22.5676 2.22473 22.739 2.50928 22.739C4.51456 22.739 6.44705 21.9526 7.88297 20.567C9.2818 21.0438 11.1069 21.3327 12.7749 21.3327C19.1041 21.3327 24.299 16.9695 24.7019 11.4733L24.6997 10.0651C24.4943 7.40619 23.168 4.90707 20.9004 3.05148L18.7402 1.64523C17.1442 0.832794 15.352 0.359009 13.5074 0.259583L12.0976 0.256836ZM7.95767 19.0967C9.2244 19.6007 11.1154 19.9265 12.7749 19.9265C18.5905 19.9265 23.3218 15.8261 23.3218 10.7858C23.3218 5.5495 18.3895 1.64523 12.7749 1.64523C6.8291 1.64523 1.80615 5.83102 1.80615 10.7858C1.80615 12.9345 2.68478 15.0227 4.28 16.6657C4.36102 16.749 4.42007 16.8511 4.45193 16.9629C4.85513 18.3812 4.68594 19.8781 4.02319 21.1479C5.22592 20.8504 6.32977 20.2033 7.17874 19.2753C7.37622 19.0597 7.68631 18.9885 7.95767 19.0967Z" fill="black"/>
<path d="M18.3999 8.67773H9.54053C9.15216 8.67773 8.8374 8.99248 8.8374 9.38085C8.8374 9.76922 9.15216 10.084 9.54053 10.084H18.3999C18.7883 10.084 19.103 9.76922 19.103 9.38085C19.103 8.99248 18.7883 8.67773 18.3999 8.67773Z" fill="black"/>
<path d="M18.3999 12.8965H6.72803C6.33966 12.8965 6.0249 13.2113 6.0249 13.5996C6.0249 13.988 6.33966 14.3027 6.72803 14.3027H18.3999C18.7883 14.3027 19.103 13.988 19.103 13.5996C19.103 13.2113 18.7883 12.8965 18.3999 12.8965Z" fill="black"/>
</g>
<defs>
<clipPath id="clip0_1056_9436">
<rect width="25" height="23" fill="white"/>
</clipPath>
</defs>
</svg>
