<svg width="21" height="24" viewBox="0 0 21 24" fill="none" xmlns="http://www.w3.org/2000/svg">
<path d="M16.2759 1.21951C14.2899 0.407742 11.9275 0.170978 9.62432 0.553606C7.14675 0.965831 5.00212 2.03339 3.42193 3.64C2.24656 4.83651 0.819633 7.16505 0.705479 11.4617C0.63149 14.2616 1.16949 17.3216 2.14404 19.648C3.11858 21.9745 4.35736 23.2048 5.72193 23.2048C8.14665 23.2048 9.23429 21.0824 10.2849 19.0297C11.0248 17.5922 11.7816 16.1061 12.9855 15.2901C13.6049 14.8673 14.4442 14.5502 15.3331 14.2035C17.8551 13.2311 20.9933 12.0198 20.9933 7.68509C20.9933 4.80269 19.2735 2.44561 16.2759 1.21951ZM14.7243 12.6254C13.7434 13.0038 12.8164 13.3653 12.0364 13.8938C10.4741 14.9508 9.57358 16.7117 8.77979 18.2623C7.74606 20.277 7.04633 21.5136 5.72193 21.5136C5.24417 21.5136 4.43452 20.7346 3.70415 18.9927C2.81733 16.8787 2.33006 14.0788 2.39665 11.5061C2.47381 8.58247 3.26655 6.20954 4.62795 4.82488C6.53687 2.8832 9.23852 2.0651 11.752 2.0651C13.0802 2.05338 14.3984 2.29591 15.6354 2.77962C17.0095 3.33982 19.3021 4.72236 19.3021 7.68086C19.3021 10.8603 17.1807 11.6837 14.7243 12.6254Z" fill="black"/>
</svg>
