<svg width="24" height="23" viewBox="0 0 24 23" fill="none" xmlns="http://www.w3.org/2000/svg">
<path d="M17.3301 22.7425C16.7716 22.7408 16.2191 22.6276 15.7051 22.4094C9.0711 19.5691 3.78669 14.2818 0.950072 7.64627C0.62935 6.89951 0.53998 6.07372 0.693514 5.27564C0.847048 4.47755 1.23643 3.74386 1.81132 3.1694L4.24882 0.731898C4.70585 0.275434 5.32538 0.019043 5.97132 0.019043C6.61726 0.019043 7.23679 0.275434 7.69382 0.731898L10.5619 3.60002C11.0184 4.05706 11.2748 4.67658 11.2748 5.32252C11.2748 5.96846 11.0184 6.58799 10.5619 7.04502L9.23757 8.38565C9.7499 9.68592 10.5243 10.8669 11.5125 11.8551C12.5007 12.8433 13.6817 13.6177 14.9819 14.13L16.3469 12.7731C16.804 12.3167 17.4235 12.0603 18.0694 12.0603C18.7154 12.0603 19.3349 12.3167 19.7919 12.7731L22.6601 15.6413C23.1165 16.0983 23.3729 16.7178 23.3729 17.3638C23.3729 18.0097 23.1165 18.6292 22.6601 19.0863L20.2226 21.5238C19.8454 21.9086 19.3954 22.2145 18.8988 22.4238C18.4022 22.633 17.8689 22.7414 17.3301 22.7425ZM6.00382 1.61752C5.89689 1.6169 5.79089 1.6374 5.6919 1.67783C5.5929 1.71827 5.50287 1.77784 5.42695 1.85315L2.98945 4.29065C2.6433 4.63523 2.40866 5.07585 2.31594 5.55538C2.22322 6.03492 2.2767 6.53125 2.46945 6.98002C5.12864 13.2459 10.1067 18.2414 16.3632 20.9225C16.812 21.1153 17.3083 21.1687 17.7878 21.076C18.2674 20.9833 18.708 20.7487 19.0526 20.4025L21.4901 17.965C21.5662 17.8895 21.6267 17.7996 21.6679 17.7006C21.7092 17.6016 21.7304 17.4954 21.7304 17.3881C21.7304 17.2809 21.7092 17.1747 21.6679 17.0757C21.6267 16.9767 21.5662 16.8868 21.4901 16.8113L18.6138 13.9431C18.4616 13.7918 18.2557 13.7069 18.041 13.7069C17.8264 13.7069 17.6204 13.7918 17.4682 13.9431L15.7457 15.6656C15.6406 15.7687 15.5095 15.8413 15.3664 15.8756C15.2233 15.9099 15.0736 15.9048 14.9332 15.8606C13.2076 15.2855 11.6397 14.3164 10.3536 13.0303C9.06742 11.7441 8.09838 10.1762 7.5232 8.45065C7.47907 8.31025 7.4739 8.16051 7.50825 8.01741C7.54259 7.87431 7.61516 7.74322 7.7182 7.63815L9.4407 5.91565C9.516 5.83973 9.57558 5.74969 9.61601 5.6507C9.65644 5.5517 9.67694 5.4457 9.67632 5.33877C9.67542 5.12562 9.5908 4.92136 9.4407 4.77002L6.5807 1.85315C6.50478 1.77784 6.41474 1.71827 6.31574 1.67783C6.21675 1.6374 6.11075 1.6169 6.00382 1.61752Z" fill="black"/>
</svg>
