<svg width="24" height="24" viewBox="0 0 24 24" fill="none" xmlns="http://www.w3.org/2000/svg">
<path d="M14.6427 13.2849C15.0627 12.7818 15.3305 12.1694 15.4149 11.5195C15.4992 10.8695 15.3964 10.2091 15.1187 9.61547C14.841 9.02187 14.3998 8.51974 13.8469 8.16797C13.2939 7.8162 12.6522 7.62936 11.9968 7.62936C11.3414 7.62936 10.6997 7.8162 10.1467 8.16797C9.59379 8.51974 9.15259 9.02187 8.87488 9.61547C8.59716 10.2091 8.49444 10.8695 8.57875 11.5195C8.66306 12.1694 8.93091 12.7818 9.35089 13.2849C8.88002 13.4455 8.46659 13.7407 8.16178 14.1339C7.92598 14.4345 7.76251 14.7854 7.68402 15.1594C7.60552 15.5333 7.61411 15.9203 7.70912 16.2904L9.10847 21.8051C9.25007 22.3549 9.57128 22.8416 10.0211 23.1879C10.4709 23.5343 11.0235 23.7204 11.5912 23.7168H12.4093C12.9764 23.7197 13.5282 23.5332 13.9773 23.1869C14.4264 22.8406 14.7471 22.3543 14.8886 21.8051L16.2879 16.2904C16.3829 15.9203 16.3915 15.5333 16.313 15.1594C16.2345 14.7854 16.0711 14.4345 15.8353 14.1339C15.5295 13.7401 15.1148 13.4449 14.6427 13.2849ZM12.0002 9.01096C12.4093 9.01096 12.8091 9.13225 13.1492 9.35949C13.4893 9.58672 13.7543 9.9097 13.9108 10.2876C14.0674 10.6655 14.1083 11.0813 14.0285 11.4824C13.9487 11.8836 13.7518 12.2521 13.4626 12.5413C13.1733 12.8305 12.8049 13.0275 12.4037 13.1073C12.0025 13.1871 11.5867 13.1461 11.2089 12.9896C10.831 12.8331 10.508 12.568 10.2808 12.2279C10.0535 11.8878 9.93223 11.488 9.93223 11.079C9.93223 10.5305 10.1501 10.0045 10.5379 9.61667C10.9258 9.22884 11.4518 9.01096 12.0002 9.01096ZM14.9518 15.9503L13.5524 21.465C13.4862 21.717 13.3378 21.9397 13.1308 22.0979C12.9237 22.256 12.6698 22.3406 12.4093 22.3382H11.5912C11.3297 22.3419 11.0745 22.2579 10.8663 22.0997C10.658 21.9414 10.5088 21.718 10.4423 21.465L9.04298 15.9503C9.00041 15.7838 8.99671 15.6098 9.03217 15.4416C9.06764 15.2735 9.14131 15.1157 9.24749 14.9806C9.3579 14.8371 9.49993 14.721 9.66252 14.6413C9.82512 14.5616 10.0039 14.5204 10.185 14.5211H13.804C13.9851 14.5204 14.1639 14.5616 14.3265 14.6413C14.4891 14.721 14.6311 14.8371 14.7415 14.9806C14.8487 15.1153 14.9234 15.2728 14.9599 15.4409C14.9963 15.6091 14.9935 15.7834 14.9518 15.9503ZM18.6638 11.9981C18.6626 11.0475 18.4579 10.1082 18.0636 9.24317C17.6693 8.37819 17.0945 7.60758 16.3778 6.98309C15.6611 6.3586 14.8191 5.89468 13.9082 5.62249C12.9974 5.3503 12.0389 5.27614 11.0971 5.40498C10.1553 5.53382 9.25188 5.86269 8.44763 6.3695C7.64339 6.8763 6.95689 7.54932 6.43423 8.34336C5.91157 9.13739 5.56485 10.0341 5.41735 10.9732C5.26985 11.9123 5.32499 12.872 5.57906 13.7881C5.62369 13.9628 5.59806 14.1481 5.50768 14.3041C5.4173 14.4602 5.26937 14.5746 5.0956 14.6229C4.92183 14.6711 4.73608 14.6494 4.57817 14.5622C4.42027 14.4751 4.30279 14.3296 4.25094 14.1569C3.91939 12.9624 3.86846 11.7074 4.10215 10.49C4.33583 9.27251 4.84779 8.12558 5.59804 7.13872C6.34829 6.15187 7.31652 5.35181 8.42711 4.80103C9.5377 4.25026 10.7606 3.96368 12.0002 3.96368C13.2399 3.96368 14.4628 4.25026 15.5734 4.80103C16.684 5.35181 17.6522 6.15187 18.4025 7.13872C19.1527 8.12558 19.6647 9.27251 19.8983 10.49C20.132 11.7074 20.0811 12.9624 19.7496 14.1569C19.6977 14.3296 19.5802 14.4751 19.4223 14.5622C19.2644 14.6494 19.0787 14.6711 18.9049 14.6229C18.7311 14.5746 18.5832 14.4602 18.4928 14.3041C18.4024 14.1481 18.3768 13.9628 18.4214 13.7881C18.5827 13.2051 18.6642 12.603 18.6638 11.9981ZM23.719 11.9981C23.7201 13.9246 23.2457 15.8216 22.3381 17.5209C21.4304 19.2202 20.1175 20.6693 18.5156 21.7396C18.3633 21.8414 18.1767 21.8784 17.9971 21.8427C17.8174 21.8069 17.6592 21.7012 17.5575 21.5489C17.4557 21.3965 17.4186 21.21 17.4544 21.0303C17.4901 20.8506 17.5958 20.6925 17.7482 20.5907C19.5919 19.3578 20.9903 17.5646 21.7369 15.4761C22.4835 13.3876 22.5388 11.1143 21.8945 8.99198C21.2503 6.86964 19.9406 5.0107 18.159 3.68963C16.3774 2.36856 14.2182 1.65537 12.0002 1.65537C9.78228 1.65537 7.62308 2.36856 5.84147 3.68963C4.05985 5.0107 2.75024 6.86964 2.10599 8.99198C1.46174 11.1143 1.517 13.3876 2.26361 15.4761C3.01022 17.5646 4.40861 19.3578 6.25231 20.5907C6.40467 20.6925 6.51035 20.8506 6.54612 21.0303C6.58188 21.21 6.5448 21.3965 6.44303 21.5489C6.34126 21.7012 6.18313 21.8069 6.00344 21.8427C5.82375 21.8784 5.6372 21.8414 5.48485 21.7396C3.80228 20.6141 2.43993 19.072 1.53055 17.2635C0.621175 15.455 0.195779 13.4417 0.295814 11.4199C0.395849 9.3981 1.0179 7.43668 2.10137 5.72676C3.18483 4.01684 4.69275 2.61674 6.47821 1.66287C8.26366 0.708995 10.2658 0.23389 12.2894 0.283843C14.3131 0.333795 16.2893 0.907102 18.0255 1.9479C19.7617 2.9887 21.1988 4.4615 22.1965 6.2228C23.1943 7.98409 23.7188 9.97381 23.719 11.9981Z" fill="black"/>
</svg>
