<svg width="27" height="27" viewBox="0 0 27 27" fill="none" xmlns="http://www.w3.org/2000/svg">
<path d="M6.46186 25.0139L7.58598 24.7504C8.38943 25.189 9.23813 25.5391 10.1172 25.7945M1.91245 22.5563L1.45363 24.4316C1.24539 25.2845 2.01068 26.0569 2.86539 25.8563L4.7401 25.4174M2.32363 20.8757L2.58892 19.7892C2.14325 18.9891 1.78682 18.1427 1.5248 17.2651M25.7672 10.0286C25.5051 9.15103 25.1481 8.30464 24.7024 7.50451M1.52833 10.0122C1.79122 9.13507 2.14903 8.28928 2.59539 7.4898M23.4748 5.68804C22.8977 4.97659 22.2457 4.32933 21.5301 3.75745M3.82716 5.67627C4.40443 4.96548 5.05685 4.31918 5.77304 3.74863M19.706 2.54333C18.9025 2.10472 18.0538 1.75463 17.1748 1.49922M7.59892 2.53569C8.40321 2.09726 9.25294 1.74794 10.133 1.49392M15.0242 1.07451C14.114 0.975956 13.1958 0.975167 12.2854 1.07216M1.08363 15.1157C0.972125 14.1396 0.972125 13.1541 1.08363 12.178M25.7636 17.2816C25.5007 18.1587 25.1429 19.0044 24.6966 19.8039M23.4648 21.6174C22.8875 22.3282 22.2351 22.9745 21.5189 23.5451M19.693 24.758C18.8887 25.1965 18.039 25.5458 17.1589 25.7998M26.2083 15.1157C26.3198 14.1396 26.3198 13.1541 26.2083 12.178M12.2677 26.2192C13.178 26.3178 14.0962 26.3186 15.0066 26.2216" stroke="black" stroke-width="1.41176" stroke-linecap="round" stroke-linejoin="round"/>
<path d="M7.9873 6.6582C11.5363 3.78474 16.6765 4.03178 19.9336 7.23242C23.1909 10.4335 23.5275 15.5694 20.7158 19.168C17.9936 22.6519 13.1593 23.6212 9.32129 21.5137C8.93712 21.3029 8.47511 21.2114 8.01367 21.3066L6.28027 21.665C5.90935 21.7416 5.58346 21.408 5.66895 21.0391L6.03809 19.4473C6.15066 18.962 6.05476 18.4718 5.82617 18.0693C3.66953 14.2717 4.55832 9.43491 7.9873 6.6582Z" stroke="black" stroke-width="1.31432" stroke-linecap="round" stroke-linejoin="round"/>
</svg>
