<svg width="26" height="24" viewBox="0 0 26 24" fill="none" xmlns="http://www.w3.org/2000/svg">
<path d="M9.9353 1.25928C12.2025 0.26435 15.6646 0.378193 17.8738 2.44482V2.4458C18.9225 3.43048 19.4199 4.41631 19.6453 5.47217C19.8756 6.55163 19.8275 7.7215 19.741 9.10107L19.6921 9.87646L20.4177 9.59912C21.5248 9.17617 22.4199 9.67631 22.6785 10.2534C22.8022 10.5297 22.8018 10.8546 22.5906 11.1899C22.3977 11.4958 22.0083 11.8393 21.3103 12.1294L20.9929 12.2495C20.8757 12.2897 20.7172 12.3451 20.5652 12.4038C20.4227 12.4589 20.2498 12.5306 20.1228 12.6089L19.822 12.7944L19.8962 13.1392C19.9555 13.4145 20.1189 13.771 20.3396 14.1372C20.5665 14.5137 20.8754 14.9356 21.2576 15.3433C22.0165 16.1528 23.1018 16.9468 24.4412 17.1655H24.4431C24.8322 17.2283 25.1461 17.5756 25.1648 17.9546L23.9636 17.6597C22.1106 17.2041 20.6499 15.7487 19.8757 14.4761L19.7302 14.2241L19.5662 13.9058C19.2346 13.2088 19.2462 12.832 19.3572 12.6011C19.4989 12.3065 19.9009 12.0175 20.8035 11.7056C20.9934 11.6398 21.278 11.5416 21.5154 11.4331C21.6317 11.3799 21.7629 11.3128 21.8718 11.2319C21.9261 11.1916 21.9945 11.1336 22.0525 11.0562C22.1099 10.9795 22.1834 10.8475 22.1794 10.6733L22.1775 10.5747L22.1375 10.4829L22.0759 10.3784C22.0555 10.3505 22.0371 10.3295 22.0251 10.3169C21.9948 10.2849 21.9625 10.2577 21.9343 10.2358C21.8777 10.1919 21.812 10.1514 21.7419 10.1167C21.6038 10.0483 21.4114 9.98396 21.1921 9.98389H21.1843L21.1765 9.98486C21.0669 9.98819 20.9659 10.016 20.8972 10.0376C20.823 10.0609 20.7441 10.0902 20.6736 10.1177C20.5237 10.176 20.3779 10.2352 20.2156 10.2827C19.8958 10.3763 19.5818 10.4034 19.2751 10.2642C19.2553 10.2551 19.1482 10.2047 19.1394 9.68701C19.1355 9.45612 19.1515 9.18452 19.1736 8.86475C19.1952 8.55159 19.2217 8.19596 19.2351 7.82373C19.2855 6.42265 19.1495 4.65652 17.7693 3.1626L17.4763 2.86768L17.28 2.69287C16.2816 1.8445 15.0367 1.40916 13.8142 1.27783C12.5938 1.14674 11.3631 1.31489 10.365 1.7085L10.1687 1.78955C8.50531 2.51637 7.62002 3.59606 7.18042 4.78467C6.75126 5.94513 6.76136 7.17368 6.80151 8.17236C6.82224 8.6878 6.85088 9.12241 6.84448 9.50146C6.83793 9.88869 6.7936 10.125 6.72534 10.2593C6.69642 10.316 6.66786 10.3438 6.64233 10.3608C6.61582 10.3785 6.56583 10.4025 6.46851 10.4116C6.25461 10.4316 5.8859 10.3751 5.28101 10.146H5.27905C5.22602 10.1262 5.14423 10.0952 5.07104 10.0698C5.03398 10.057 4.99185 10.043 4.9519 10.0317C4.92166 10.0232 4.85663 10.0054 4.78589 10.0005L4.76831 9.99854H4.75171C4.54958 9.99854 4.3683 10.0642 4.24097 10.1304C4.17478 10.1648 4.10937 10.2064 4.05151 10.2544C4.01116 10.2879 3.91021 10.3756 3.85522 10.5142L3.78101 10.7007L3.8562 10.8862C3.93505 11.081 4.0976 11.2 4.17944 11.2554C4.28223 11.3248 4.39967 11.3848 4.50757 11.4341C4.61626 11.4837 4.73224 11.5293 4.8396 11.5698L5.1228 11.6724C5.84475 11.9268 6.3216 12.2089 6.55444 12.5171C6.66155 12.6589 6.71687 12.8057 6.72339 12.9722C6.73006 13.1449 6.68523 13.3724 6.53784 13.6694L6.53394 13.6782L6.52905 13.688C5.98229 14.9166 5.36548 15.7145 4.64331 16.2954C3.91505 16.8812 3.04997 17.2716 1.96167 17.644L0.981201 17.979L1.85327 18.5376C2.50913 18.9579 3.24843 19.0566 3.76245 19.1401C4.0389 19.1851 4.23607 19.2218 4.38452 19.2778C4.522 19.3298 4.56177 19.3782 4.57983 19.4116C4.61706 19.4806 4.65623 19.5985 4.7019 19.7847C4.72374 19.8737 4.74525 19.9673 4.76831 20.0698C4.79088 20.1702 4.81527 20.2782 4.84253 20.3853L4.94995 20.8091L5.38452 20.7583C6.63129 20.6143 7.23814 20.5264 7.78101 20.6021C8.28614 20.6725 8.76057 20.8932 9.67749 21.5054C11.0759 22.4393 12.1687 22.8292 13.1199 22.8364C14.0813 22.8437 14.8143 22.4579 15.4666 22.0405C16.1399 21.6097 16.6945 21.1764 17.4373 20.8833C18.1481 20.6029 19.0303 20.4588 20.2761 20.7026H20.2781C20.306 20.7081 20.4231 20.7349 20.5466 20.7241C20.7087 20.7099 20.8591 20.6396 20.9792 20.5132C21.0807 20.4064 21.145 20.2754 21.1921 20.1558C21.2412 20.0312 21.2864 19.8783 21.3318 19.6948C21.3948 19.4467 21.4769 19.3622 21.5349 19.3208C21.6124 19.2655 21.7349 19.2234 21.9832 19.1841C22.4506 19.1101 23.2369 19.0741 24.0945 18.5786L25.1648 17.9595C25.1672 18.0163 25.1638 18.074 25.1521 18.1313C25.063 18.5687 24.4613 19.3452 22.2097 19.7505L21.9128 19.8042L21.822 20.0913C21.6112 20.7528 21.3156 21.0447 21.0593 21.1782C20.7928 21.317 20.4816 21.3298 20.1638 21.2681H20.1648C19.2524 21.0892 18.6034 21.0766 18.0417 21.229C17.4872 21.3795 17.0666 21.6815 16.6277 21.9888L16.616 21.9966L16.6042 22.0063C15.5063 22.8739 14.5174 23.2581 13.6443 23.3677C12.7696 23.4775 11.9742 23.3161 11.2576 23.0356C10.5357 22.7532 9.90472 22.3552 9.35522 21.9956C9.08747 21.8204 8.82605 21.6447 8.59546 21.5103C8.42938 21.4135 8.24499 21.3164 8.05737 21.2563L7.8689 21.2104C7.03722 21.0734 6.36096 21.1874 5.87476 21.2681C5.06748 21.4002 4.76705 21.302 4.62378 21.188C4.4587 21.0566 4.33406 20.7861 4.1853 20.1323L4.11206 19.8091L3.78589 19.7505C3.09108 19.6261 2.44028 19.4653 1.92163 19.23C1.39953 18.9931 1.07594 18.7106 0.93335 18.3794V18.3774L0.891357 18.27C0.80813 18.027 0.823376 17.8379 0.892334 17.6831C1.03386 17.3691 1.35696 17.2322 2.01147 17.0151C3.69401 16.4571 4.69769 15.5374 5.29175 14.7261C5.58689 14.3229 5.77727 13.951 5.90015 13.6733C5.9614 13.5349 6.00575 13.4199 6.03589 13.3413C6.04306 13.3226 6.04874 13.3076 6.05347 13.2954L6.35718 12.9438L5.92749 12.6235C5.87715 12.586 5.82454 12.559 5.80054 12.5474C5.76797 12.5316 5.732 12.5161 5.69702 12.5015C5.62658 12.4719 5.54108 12.4393 5.45386 12.4067L4.92847 12.2173L4.59351 12.0962C4.25634 11.9685 3.92007 11.817 3.65894 11.604C3.49275 11.4684 3.37322 11.3204 3.30444 11.1538C3.23728 10.991 3.20519 10.779 3.25854 10.4917C3.37951 9.88017 4.17251 9.10345 5.57886 9.64111L6.30542 9.91846L6.25659 9.14307C6.16295 7.64737 6.11765 6.10196 6.5769 4.71338C6.99691 3.44379 7.84966 2.27582 9.57788 1.42529L9.9353 1.25928Z" fill="black" stroke="black"/>
</svg>
