<svg width="26" height="27" viewBox="0 0 26 27" fill="none" xmlns="http://www.w3.org/2000/svg">
<path d="M0.916016 13.368C0.916016 6.698 6.32935 1.28467 12.9993 1.28467C19.6693 1.28467 25.0827 6.698 25.0827 13.368C25.0827 20.038 19.6693 25.4513 12.9993 25.4513C6.32935 25.4513 0.916016 20.038 0.916016 13.368Z" stroke="black" stroke-width="1.43792" stroke-linecap="round" stroke-linejoin="round"/>
<path d="M8.92725 17.3685C11.5614 16.6677 14.3527 16.9577 16.7814 18.2023" stroke="black" stroke-width="1.43792" stroke-linecap="round" stroke-linejoin="round"/>
<path d="M7.56201 13.4524C8.89118 13.0053 10.317 12.7637 11.7912 12.7637C14.232 12.7637 16.5278 13.4283 18.4974 14.5762" stroke="black" stroke-width="1.43792" stroke-linecap="round" stroke-linejoin="round"/>
<path d="M6.95752 9.63425C8.62502 8.92133 10.4617 8.53467 12.395 8.53467C15.3071 8.53467 18.0138 9.42883 20.2492 10.9513" stroke="black" stroke-width="1.43792" stroke-linecap="round" stroke-linejoin="round"/>
</svg>
