<svg width="26" height="23" viewBox="0 0 26 23" fill="none" xmlns="http://www.w3.org/2000/svg">
<path d="M12.9816 15.3768L16.7957 19.7133C18.2075 21.3191 18.9146 22.1227 19.6546 21.9262C20.3934 21.7309 20.6475 20.6744 21.1546 18.5603L23.9663 6.83326C24.7487 3.57679 25.1393 1.94973 24.271 1.1462C23.4028 0.342671 21.8981 0.940318 18.8887 2.13444L4.92868 7.67914C2.52162 8.63561 1.31809 9.11326 1.24162 9.93443C1.23261 10.0181 1.23261 10.1025 1.24162 10.1862C1.31574 11.0086 2.51691 11.4897 4.92162 12.4533C6.00985 12.8897 6.55456 13.1086 6.94515 13.5262C6.98907 13.5733 7.03142 13.6219 7.07221 13.6721C7.43221 14.1191 7.58515 14.7074 7.89221 15.8791L8.4675 18.0756C8.76515 19.2168 8.91456 19.7886 9.30632 19.8662C9.69809 19.9438 10.0381 19.4709 10.7193 18.5238L12.9816 15.3768ZM12.9816 15.3768L12.6087 14.9886C12.1828 14.5438 11.9699 14.3227 11.9699 14.0474C11.9699 13.7721 12.1816 13.5497 12.6087 13.1062L16.8122 8.72502" stroke="black" stroke-width="1.41176" stroke-linecap="round" stroke-linejoin="round"/>
</svg>
