<svg width="22" height="24" viewBox="0 0 22 24" fill="none" xmlns="http://www.w3.org/2000/svg">
<path d="M15.9995 6.11719V11.1172M10.9995 6.11719V11.1172M15.9995 1.11719H5.99951C3.64201 1.11719 2.46451 1.11719 1.73201 1.84719C0.999512 2.57594 0.999512 3.74969 0.999512 6.09719V14.3172C0.999512 14.7797 0.999512 15.0109 1.03076 15.2047C1.11464 15.7248 1.36068 16.2051 1.73377 16.5771C2.10685 16.949 2.58791 17.1936 3.10826 17.2759C3.30326 17.3059 3.53451 17.3059 3.99951 17.3059C4.11576 17.3059 4.17451 17.3059 4.22201 17.3134C4.35217 17.3339 4.47254 17.3949 4.56593 17.4879C4.65932 17.5808 4.72095 17.7009 4.74201 17.8309C4.74951 17.8797 4.74951 17.9372 4.74951 18.0534V19.9822C4.74951 21.4597 4.74951 22.1984 5.16826 22.3447C5.58576 22.4909 6.04951 21.9147 6.97576 20.7597L9.37451 17.7722C9.55826 17.5434 9.65076 17.4284 9.77951 17.3672C9.90701 17.3059 10.0545 17.3059 10.3508 17.3059H15.1783C16.2008 17.3059 16.7108 17.3059 17.1708 17.1159C17.6295 16.9272 17.9908 16.5659 18.7145 15.8472L19.5345 15.0284C20.2583 14.3097 20.6183 13.9497 20.8095 13.4909C20.9995 13.0334 20.9995 12.5247 20.9995 11.5072V6.09844C20.9995 3.74969 20.9995 2.57594 20.267 1.84719C19.5345 1.11719 18.357 1.11719 15.9995 1.11719Z" stroke="black" stroke-width="1.5" stroke-linecap="round" stroke-linejoin="round"/>
</svg>
