<svg width="24" height="23" viewBox="0 0 24 23" fill="none" xmlns="http://www.w3.org/2000/svg">
<path fill-rule="evenodd" clip-rule="evenodd" d="M12.0003 0.0859375C5.77079 0.0859375 0.720215 5.13598 0.720215 11.3655C0.720215 17.5951 5.77026 22.6451 11.9998 22.6451C18.2291 22.6451 23.279 17.5954 23.2794 11.3662C23.2794 5.13691 18.2295 0.0863273 12.0003 0.0859375ZM10.3242 1.7044C5.94444 2.45866 2.5587 6.11869 2.22336 10.6281H7.07643C7.28239 7.3969 8.41378 4.30032 10.3242 1.7044ZM13.6766 1.70461C15.5869 4.30049 16.7183 7.39698 16.9242 10.6281H21.7762C21.4409 6.11911 18.0558 2.45934 13.6766 1.70461ZM15.4451 10.6281C15.2229 7.44865 14.0187 4.41644 12.0003 1.95139C9.98199 4.41644 8.77774 7.44865 8.55554 10.6281H15.4451ZM8.55562 12.1039H15.4451C15.2227 15.283 14.0185 18.3149 12.0003 20.7797C9.9822 18.3149 8.778 15.283 8.55562 12.1039ZM7.07649 12.1039H2.22344C2.55921 16.6129 5.94476 20.2724 10.3242 21.0266C8.41398 18.431 7.28263 15.3348 7.07649 12.1039ZM13.6766 21.0264C15.5867 18.4308 16.718 15.3347 16.9242 12.1039H21.7762C21.4404 16.6125 18.0555 20.2718 13.6766 21.0264Z" fill="black"/>
</svg>
