<svg width="26" height="27" viewBox="0 0 26 27" fill="none" xmlns="http://www.w3.org/2000/svg">
<mask id="mask0_1046_1568" style="mask-type:luminance" maskUnits="userSpaceOnUse" x="0" y="0" width="26" height="27">
<path d="M0.0617676 0.421848H25.9441V26.3042H0.0617676V0.421848Z" fill="white"/>
</mask>
<g mask="url(#mask0_1046_1568)">
<path d="M2.36838 19.3017C1.38192 17.5469 0.819336 15.5219 0.819336 13.3654C0.819336 6.66489 6.30174 1.18253 13.0022 1.18253C19.7028 1.18253 25.1851 6.66489 25.1851 13.3654C25.1851 20.0659 19.7028 25.5483 13.0022 25.5483C10.8458 25.5483 8.82082 24.9857 7.06598 23.9993L0.819336 25.5483L2.36838 19.3017Z" stroke="black" stroke-width="1.41176" stroke-miterlimit="10" stroke-linecap="round" stroke-linejoin="round"/>
<path d="M11.5732 14.7935C11.0703 14.289 9.05206 12.0493 9.78648 11.3149C9.98833 11.113 10.7954 10.5617 11.1103 10.2468C12.1827 9.17448 10.9523 7.8468 10.1634 7.05784C10.0989 6.99339 8.88444 5.68628 7.27205 7.29872C4.38935 10.1814 8.49832 15.3503 9.75119 16.6155C11.0163 17.8684 16.1852 21.9774 19.068 19.0947C20.6804 17.4822 19.3733 16.2677 19.3088 16.2033C18.5199 15.4144 17.1922 14.184 16.1198 15.2564C15.805 15.5713 15.2537 16.3783 15.0518 16.5802C14.3174 17.3146 12.0776 15.2964 11.5732 14.7935Z" stroke="black" stroke-width="1.41176" stroke-miterlimit="10"/>
</g>
</svg>
