<svg width="24" height="19" viewBox="0 0 24 19" fill="none" xmlns="http://www.w3.org/2000/svg">
<path d="M10.134 5.10654C9.637 4.80954 9 5.16854 9 5.75054V12.7505C9 13.3355 9.638 13.6895 10.134 13.3955L16.003 9.90054C16.491 9.60954 16.49 8.90354 16.004 8.61154L10.134 5.10654ZM10.5 11.4315V7.07154L14.155 9.25454L10.5 11.4315Z" fill="black"/>
<path d="M19.904 0.51825C15.251 -0.17275 8.751 -0.17275 4.096 0.51825C2.234 0.79425 0.767 2.25625 0.447 4.15425C-0.149 7.67725 -0.149 10.8182 0.447 14.3402C0.767 16.2392 2.234 17.7002 4.096 17.9762C6.428 18.3222 9.22 18.4952 12.011 18.4952C14.797 18.4952 17.582 18.3232 19.905 17.9772C21.765 17.7012 23.231 16.2402 23.553 14.3412C24.149 10.8182 24.149 7.67625 23.553 4.15325C23.233 2.25625 21.766 0.79425 19.904 0.51825ZM22.074 14.0912C21.861 15.3472 20.901 16.3132 19.684 16.4932C15.166 17.1642 8.846 17.1642 4.316 16.4922C3.098 16.3112 2.137 15.3462 1.925 14.0902C1.351 10.6962 1.351 7.79925 1.925 4.40325C2.138 3.14725 3.098 2.18325 4.317 2.00125C6.579 1.66625 9.29 1.49825 11.999 1.49825C14.71 1.49825 17.421 1.66625 19.683 2.00125C20.901 2.18225 21.862 3.14725 22.074 4.40325C22.648 7.79925 22.648 10.6962 22.074 14.0912Z" fill="black"/>
</svg>
