<svg width="4" height="17" viewBox="0 0 4 17" fill="none" xmlns="http://www.w3.org/2000/svg">
<path d="M2.00004 9.42067C2.5063 9.42067 2.91671 9.01027 2.91671 8.50401C2.91671 7.99775 2.5063 7.58734 2.00004 7.58734C1.49378 7.58734 1.08337 7.99775 1.08337 8.50401C1.08337 9.01027 1.49378 9.42067 2.00004 9.42067Z" fill="black" stroke="black" stroke-width="1.2" stroke-linecap="round" stroke-linejoin="round"/>
<path d="M2.00004 3.0038C2.5063 3.0038 2.91671 2.5934 2.91671 2.08714C2.91671 1.58088 2.5063 1.17047 2.00004 1.17047C1.49378 1.17047 1.08337 1.58088 1.08337 2.08714C1.08337 2.5934 1.49378 3.0038 2.00004 3.0038Z" fill="black" stroke="black" stroke-width="1.2" stroke-linecap="round" stroke-linejoin="round"/>
<path d="M2.00004 15.8372C2.5063 15.8372 2.91671 15.4268 2.91671 14.9206C2.91671 14.4143 2.5063 14.0039 2.00004 14.0039C1.49378 14.0039 1.08337 14.4143 1.08337 14.9206C1.08337 15.4268 1.49378 15.8372 2.00004 15.8372Z" fill="black" stroke="black" stroke-width="1.2" stroke-linecap="round" stroke-linejoin="round"/>
</svg>
