<svg width="16" height="16" viewBox="0 0 16 16" fill="none" xmlns="http://www.w3.org/2000/svg">
<path d="M9.65869 0.111023C10.1376 0.15871 10.5888 0.371216 10.9321 0.714539C11.3242 1.10689 11.5443 1.63933 11.5444 2.19403V3.00458H13.0718C13.0745 3.00454 13.0778 3.0036 13.0806 3.0036C13.0835 3.00361 13.0864 3.00453 13.0894 3.00458H14.5317L14.6606 3.01727C14.953 3.07714 15.1733 3.33613 15.1733 3.64618C15.1732 3.95612 14.953 4.2153 14.6606 4.27509L14.5317 4.28778H13.7222V13.8054C13.7222 14.3603 13.5012 14.8933 13.1089 15.2858C12.7165 15.6781 12.1833 15.898 11.6284 15.8981H4.37158C3.81677 15.8981 3.28452 15.678 2.89209 15.2858C2.54866 14.9424 2.33617 14.4915 2.28857 14.0124L2.27881 13.8054V4.28778H1.46924C1.11498 4.28778 0.826858 4.00039 0.82666 3.64618C0.82666 3.2918 1.11486 3.00458 1.46924 3.00458H2.91162C2.91439 3.00454 2.91764 3.0036 2.92041 3.0036C2.924 3.0036 2.92758 3.00452 2.93115 3.00458H4.45557V2.19403C4.4557 1.63918 4.67655 1.10692 5.06885 0.714539C5.46133 0.322263 5.99439 0.101257 6.54932 0.101257H9.45166L9.65869 0.111023ZM3.56201 4.28778V13.8054L3.56592 13.8854C3.58432 14.0707 3.66652 14.2448 3.79932 14.3776C3.95111 14.5294 4.15695 14.6149 4.37158 14.6149H11.6284C11.843 14.6148 12.0499 14.5294 12.2017 14.3776C12.3531 14.2258 12.438 14.0198 12.438 13.8054V4.28778H3.56201ZM6.54932 1.38446C6.33475 1.38446 6.12789 1.47016 5.97607 1.62177C5.82445 1.77348 5.73891 1.97954 5.73877 2.19403V3.00458H10.2612V2.19403C10.2611 1.97951 10.1756 1.77349 10.0239 1.62177C9.89118 1.48907 9.71687 1.40686 9.53174 1.38837L9.45166 1.38446H6.54932Z" fill="black" fill-opacity="0.6"/>
</svg>
