<svg width="22" height="20" viewBox="0 0 22 20" fill="none" xmlns="http://www.w3.org/2000/svg">
<path d="M19.146 3.33539V11.4328C19.146 13.2824 17.641 14.787 15.7919 14.787H9.39689L7.48022 16.7037H13.0002L15.5935 19.2969C15.7775 19.4804 16.0214 19.5782 16.2701 19.5782C16.3937 19.5782 16.5187 19.5542 16.6381 19.5049C16.9974 19.3558 17.2294 19.0085 17.2294 18.6194V16.7037H18.6669C19.9879 16.7037 21.0627 15.6289 21.0627 14.3078V5.68283C21.0627 4.52612 20.238 3.5582 19.146 3.33539Z" fill="black"/>
<path d="M15.7917 0.413452H3.33333C2.01227 0.413452 0.9375 1.48822 0.9375 2.80929V11.4343C0.9375 12.7553 2.01227 13.8301 3.33333 13.8301H4.77083V15.7458C4.77083 16.1349 5.00275 16.4823 5.36212 16.6313C5.48144 16.6807 5.6065 16.7046 5.73012 16.7046C5.97929 16.7046 6.22271 16.6069 6.40671 16.4234L8.99996 13.8301H15.7917C17.1127 13.8301 18.1875 12.7553 18.1875 11.4343V2.80929C18.1875 1.48822 17.1127 0.413452 15.7917 0.413452ZM9.5625 10.9551C9.298 10.9551 9.08333 10.7405 9.08333 10.476C9.08333 10.2115 9.298 9.99679 9.5625 9.99679C9.827 9.99679 10.0417 10.2115 10.0417 10.476C10.0417 10.7405 9.827 10.9551 9.5625 10.9551ZM10.6047 7.33501C10.252 7.52908 10.0417 7.84868 10.0417 8.19033V8.55929C10.0417 8.82378 9.82748 9.03845 9.5625 9.03845C9.29752 9.03845 9.08333 8.82378 9.08333 8.55929V8.19033C9.08333 7.4941 9.47865 6.86064 10.1413 6.49599C10.6133 6.23485 10.85 5.69626 10.7293 5.15672C10.6315 4.72979 10.2779 4.37568 9.84904 4.27793C9.50931 4.19983 9.16815 4.26308 8.88927 4.45474C8.61231 4.64497 8.4264 4.94349 8.37944 5.27316C8.34158 5.53479 8.10488 5.71831 7.83654 5.67949C7.57492 5.64164 7.39283 5.39918 7.43021 5.13708C7.51598 4.54291 7.84948 4.00624 8.34637 3.66508C8.84854 3.32056 9.459 3.20747 10.0618 3.34356C10.8539 3.52468 11.483 4.15335 11.6636 4.94541C11.8793 5.90566 11.4538 6.86495 10.6047 7.33501Z" fill="black"/>
</svg>
