<svg width="22" height="20" viewBox="0 0 22 20" fill="none" xmlns="http://www.w3.org/2000/svg">
<path d="M19.1924 3.63843C19.3708 3.43693 19.6713 3.38166 19.9141 3.52026L20.0547 3.60815C20.7422 4.0672 21.163 4.84637 21.1631 5.68042V14.3054C21.1631 15.6817 20.0433 16.8015 18.667 16.8015H17.3301V18.6179C17.3301 18.9939 17.1331 19.3356 16.8174 19.5251L16.6758 19.5964C16.5581 19.6456 16.4347 19.6695 16.3125 19.6746L16.3096 19.6785H16.2686C16.0278 19.6785 15.7914 19.5962 15.6006 19.4402L15.5215 19.3679L12.959 16.8015H8.63867C8.3184 16.8015 8.05957 16.5421 8.05957 16.2224C8.05974 15.9029 8.31851 15.6433 8.63867 15.6433H13.2002C13.3539 15.6434 13.5018 15.7041 13.6104 15.8132L16.1709 18.3787L16.1719 16.2224L16.1836 16.1062C16.2375 15.8424 16.4707 15.6433 16.751 15.6433H18.667C19.4042 15.6433 20.0047 15.0436 20.0049 14.3064V5.6814C20.0049 5.26501 19.8089 4.87359 19.4844 4.62378L19.3369 4.52515C19.0598 4.36583 18.9642 4.01157 19.124 3.73413L19.1924 3.63843Z" fill="black" stroke="black" stroke-width="0.2"/>
<path d="M15.792 0.313843C17.168 0.31402 18.2869 1.43293 18.2871 2.80896V11.434C18.2871 12.8101 17.1681 13.9299 15.792 13.9301H9.04102L6.47754 16.4945C6.27474 16.6967 6.00528 16.805 5.73047 16.8051C5.62808 16.8051 5.52455 16.7895 5.42383 16.7592L5.32422 16.724C4.92748 16.5595 4.6709 16.175 4.6709 15.7455V13.9301H3.33301C1.95687 13.9299 0.837891 12.8101 0.837891 11.434V2.80896C0.838067 1.43293 1.95697 0.314019 3.33301 0.313843H15.792ZM3.33301 1.47205C2.59595 1.47222 1.99627 2.0719 1.99609 2.80896V11.434C1.99609 12.1712 2.59584 12.7717 3.33301 12.7719H5.25C5.57027 12.7719 5.8291 13.0313 5.8291 13.351V15.5043L8.39258 12.9418L8.48047 12.8695C8.57486 12.8064 8.68619 12.7719 8.80176 12.7719H15.792C16.5292 12.7717 17.1289 12.1712 17.1289 11.434V2.80896C17.1287 2.0719 16.529 1.47222 15.792 1.47205H3.33301Z" fill="black" stroke="black" stroke-width="0.2"/>
<path d="M8.49207 3.45728C8.97513 3.19503 9.53331 3.12111 10.0839 3.24536H10.0848L10.2382 3.28638C10.9441 3.50264 11.5048 4.06279 11.7206 4.7688L11.7616 4.92212L11.7958 5.1106C11.9202 5.98652 11.5428 6.83883 10.8143 7.32349L10.6532 7.42114C10.3257 7.60138 10.1425 7.89168 10.1425 8.1897V8.55786C10.1425 8.87752 9.88265 9.13696 9.56238 9.13696C9.24231 9.13673 8.98328 8.87738 8.98328 8.55786V8.1897C8.98328 7.45333 9.40235 6.78785 10.0936 6.40747L10.1718 6.35962C10.5005 6.14044 10.6831 5.76376 10.6581 5.36353L10.6317 5.17798C10.5537 4.83719 10.2961 4.54548 9.97058 4.41821L9.82703 4.37427C9.55304 4.31128 9.27973 4.34827 9.0448 4.47583L8.94617 4.53638C8.72402 4.68902 8.56578 4.91739 8.50085 5.17407L8.47839 5.28638C8.4385 5.56202 8.21468 5.76679 7.94226 5.78247L7.82214 5.77759C7.50636 5.7317 7.28697 5.43886 7.33191 5.12231V5.12134L7.37683 4.89185C7.51081 4.36282 7.83494 3.89368 8.28992 3.5813L8.49207 3.45728Z" fill="black" stroke="black" stroke-width="0.2"/>
<path d="M9.56262 9.89648C9.88234 9.89666 10.1417 10.1558 10.1417 10.4756C10.1415 10.7952 9.88223 11.0545 9.56262 11.0547C9.24287 11.0547 8.9837 10.7953 8.98352 10.4756C8.98352 10.1557 9.24276 9.89648 9.56262 9.89648Z" fill="black" stroke="black" stroke-width="0.2"/>
</svg>
