<svg width="22" height="22" viewBox="0 0 22 22" fill="none" xmlns="http://www.w3.org/2000/svg">
<path d="M2.07549 1.74634C2.92475 0.901168 4.07244 0.424055 5.27057 0.418091H16.7917C19.6849 0.418091 21.3437 2.07792 21.3437 4.97017V19.3452C21.3448 19.6571 21.2587 19.9631 21.0952 20.2287C20.9317 20.4943 20.6972 20.7089 20.4183 20.8484C20.1393 20.9879 19.8269 21.0467 19.5163 21.0181C19.2057 20.9896 18.9093 20.8748 18.6604 20.6868L17.0217 19.4602C16.9743 19.4246 16.9157 19.4074 16.8566 19.4118C16.7976 19.4162 16.7421 19.4419 16.7006 19.4841L15.1079 21.0855C14.9521 21.2431 14.7666 21.3681 14.5621 21.4533C14.3576 21.5385 14.1382 21.5823 13.9167 21.5819C13.6959 21.5826 13.4773 21.5394 13.2733 21.4551C13.0693 21.3707 12.8841 21.2467 12.7283 21.0903L11.1183 19.4803C11.0781 19.4404 11.0247 19.4164 10.9681 19.4129C10.9115 19.4093 10.8556 19.4265 10.8107 19.4611L9.17291 20.6868C8.92374 20.8737 8.62746 20.9875 8.31727 21.0155C8.00707 21.0435 7.69521 20.9845 7.41664 20.8452C7.13807 20.7059 6.90378 20.4918 6.74004 20.2269C6.5763 19.9619 6.48957 19.6566 6.48957 19.3452V10.4806H3.92603C3.50113 10.5052 3.07583 10.4397 2.67807 10.2883C2.2803 10.1369 1.91907 9.903 1.61812 9.60204C1.31717 9.30109 1.0833 8.93986 0.931883 8.5421C0.780466 8.14433 0.714928 7.71903 0.739573 7.29413V4.97017C0.740099 3.761 1.22059 2.60148 2.07549 1.74634ZM7.67695 1.95909C7.72239 2.0596 7.76112 2.16301 7.7929 2.26863C7.8159 2.34147 7.84274 2.41142 7.85903 2.48713C7.89794 2.66055 7.91913 2.83747 7.92228 3.01517C7.92228 3.02859 7.92707 3.04105 7.92707 3.05351V19.3452C7.92618 19.3899 7.93818 19.4339 7.96163 19.472C7.98508 19.51 8.019 19.5405 8.05932 19.5598C8.09917 19.5804 8.14405 19.5891 8.18869 19.585C8.23333 19.581 8.27589 19.5642 8.31136 19.5368L9.94053 18.3159C10.2619 18.0712 10.6611 17.9513 11.0641 17.9785C11.4671 18.0056 11.8466 18.1779 12.1322 18.4635L13.7422 20.0735C13.7649 20.0961 13.7918 20.114 13.8214 20.1261C13.851 20.1383 13.8827 20.1445 13.9147 20.1444H13.9167C13.9487 20.1445 13.9804 20.1383 14.01 20.1261C14.0396 20.114 14.0665 20.0961 14.0892 20.0735L15.6819 18.475C15.9689 18.1883 16.3494 18.0143 16.7541 17.9848C17.1587 17.9552 17.5604 18.0721 17.8861 18.314L19.5258 19.5397C19.56 19.568 19.6019 19.5854 19.6461 19.5899C19.6903 19.5943 19.7348 19.5855 19.774 19.5646C19.8149 19.5448 19.8492 19.5135 19.8727 19.4745C19.8962 19.4356 19.9078 19.3906 19.9062 19.3452V4.97017C19.9062 2.84555 18.9163 1.85559 16.7917 1.85559H7.63861C7.65491 1.88817 7.66161 1.92555 7.67695 1.95909ZM2.17707 7.29413C2.15238 7.52987 2.18064 7.76815 2.25981 7.99158C2.33897 8.215 2.46703 8.41792 2.63464 8.58553C2.80224 8.75313 3.00517 8.88119 3.22859 8.96035C3.45201 9.03952 3.69029 9.06778 3.92603 9.04309H6.48957V3.06213C6.48806 2.74244 6.36032 2.43628 6.13417 2.21031C5.90802 1.98434 5.60177 1.85685 5.28207 1.85559C4.45814 1.85813 3.66888 2.18754 3.08762 2.77151C2.50635 3.35547 2.18059 4.14623 2.18186 4.97017L2.17707 7.29413ZM14.6354 11.6862C14.6354 11.4956 14.5597 11.3127 14.4249 11.1779C14.2901 11.0431 14.1073 10.9674 13.9167 10.9674H11.0417C10.851 10.9674 10.6682 11.0431 10.5334 11.1779C10.3986 11.3127 10.3229 11.4956 10.3229 11.6862C10.3229 11.8768 10.3986 12.0596 10.5334 12.1944C10.6682 12.3292 10.851 12.4049 11.0417 12.4049H13.9167C14.1073 12.4049 14.2901 12.3292 14.4249 12.1944C14.5597 12.0596 14.6354 11.8768 14.6354 11.6862ZM14.6354 7.85284C14.6354 7.66222 14.5597 7.4794 14.4249 7.34461C14.2901 7.20982 14.1073 7.13409 13.9167 7.13409H11.0417C10.851 7.13409 10.6682 7.20982 10.5334 7.34461C10.3986 7.4794 10.3229 7.66222 10.3229 7.85284C10.3229 8.04347 10.3986 8.22628 10.5334 8.36107C10.6682 8.49587 10.851 8.57159 11.0417 8.57159H13.9167C14.1073 8.57159 14.2901 8.49587 14.4249 8.36107C14.5597 8.22628 14.6354 8.04347 14.6354 7.85284ZM16.8214 6.89451C16.6318 6.89451 16.4465 6.95071 16.2889 7.05602C16.1313 7.16132 16.0085 7.31099 15.936 7.4861C15.8634 7.66122 15.8445 7.8539 15.8814 8.0398C15.9184 8.2257 16.0097 8.39646 16.1437 8.53049C16.2777 8.66451 16.4485 8.75578 16.6344 8.79276C16.8203 8.82974 17.013 8.81076 17.1881 8.73822C17.3632 8.66569 17.5129 8.54286 17.6182 8.38526C17.7235 8.22767 17.7797 8.04238 17.7797 7.85284C17.7797 7.59867 17.6787 7.35492 17.499 7.1752C17.3193 6.99547 17.0755 6.89451 16.8214 6.89451ZM15.863 11.6862C15.863 11.8757 15.9192 12.061 16.0245 12.2186C16.1298 12.3762 16.2795 12.499 16.4546 12.5716C16.6297 12.6441 16.8224 12.6631 17.0083 12.6261C17.1942 12.5891 17.365 12.4978 17.499 12.3638C17.633 12.2298 17.7243 12.059 17.7613 11.8731C17.7983 11.6872 17.7793 11.4945 17.7067 11.3194C17.6342 11.1443 17.5114 10.9947 17.3538 10.8893C17.1962 10.784 17.0109 10.7278 16.8214 10.7278C16.5672 10.7278 16.3234 10.8288 16.1437 11.0085C15.964 11.1883 15.863 11.432 15.863 11.6862Z" fill="black"/>
</svg>
