<svg width="20" height="20" viewBox="0 0 20 20" fill="none" xmlns="http://www.w3.org/2000/svg">
<path d="M1.57958 1.25809C2.29637 0.546454 3.26343 0.143945 4.27346 0.136841H15.7917C18.6667 0.136841 19.625 1.85322 19.625 3.97017V18.3452C19.625 18.5231 19.5754 18.6976 19.4819 18.849C19.3883 19.0004 19.2544 19.1227 19.0952 19.2023C18.9361 19.2819 18.7579 19.3156 18.5806 19.2996C18.4033 19.2837 18.234 19.2186 18.0917 19.1118L16.4529 17.8852C16.2665 17.7465 16.0362 17.6798 15.8044 17.6974C15.5727 17.715 15.3551 17.8157 15.1918 17.981L13.599 19.5833C13.4182 19.7639 13.1732 19.8654 12.9176 19.8654C12.6621 19.8654 12.417 19.7639 12.2362 19.5833L10.6263 17.9733C10.4641 17.8108 10.2485 17.7125 10.0195 17.6967C9.79046 17.6808 9.56342 17.7484 9.38042 17.8871L7.74167 19.1138C7.59929 19.2205 7.42999 19.2856 7.25273 19.3016C7.07548 19.3175 6.89727 19.2838 6.73809 19.2043C6.5789 19.1247 6.44503 19.0023 6.35146 18.8509C6.25789 18.6995 6.20833 18.5251 6.20833 18.3471V8.76376H2.92604C2.59539 8.78891 2.26321 8.74227 1.95227 8.62703C1.64133 8.51179 1.35899 8.33067 1.12459 8.0961C0.890203 7.86152 0.709305 7.57904 0.594305 7.26801C0.479305 6.95698 0.432922 6.62477 0.458334 6.29413V3.97017C0.46015 2.95372 0.863096 1.97907 1.57958 1.25809ZM15.8204 11.6483C16.0746 11.6483 16.3183 11.5474 16.4981 11.3677C16.6778 11.1879 16.7788 10.9442 16.7788 10.69C16.7788 10.4358 16.6778 10.1921 16.4981 10.0124C16.3183 9.83264 16.0746 9.73167 15.8204 9.73167C15.5663 9.73167 15.3225 9.83264 15.1428 10.0124C14.9631 10.1921 14.8621 10.4358 14.8621 10.69C14.8621 10.9442 14.9631 11.1879 15.1428 11.3677C15.3225 11.5474 15.5663 11.6483 15.8204 11.6483ZM15.8204 7.81501C16.0746 7.81501 16.3183 7.71404 16.4981 7.53432C16.6778 7.3546 16.7788 7.11084 16.7788 6.85667C16.7788 6.60251 16.6778 6.35875 16.4981 6.17903C16.3183 5.99931 16.0746 5.89834 15.8204 5.89834C15.5663 5.89834 15.3225 5.99931 15.1428 6.17903C14.9631 6.35875 14.8621 6.60251 14.8621 6.85667C14.8621 7.11084 14.9631 7.3546 15.1428 7.53432C15.3225 7.71404 15.5663 7.81501 15.8204 7.81501ZM10.0417 11.4088H12.9167C13.1073 11.4088 13.2901 11.333 13.4249 11.1982C13.5597 11.0634 13.6354 10.8806 13.6354 10.69C13.6354 10.4994 13.5597 10.3166 13.4249 10.1818C13.2901 10.047 13.1073 9.97126 12.9167 9.97126H10.0417C9.85104 9.97126 9.66823 10.047 9.53343 10.1818C9.39864 10.3166 9.32292 10.4994 9.32292 10.69C9.32292 10.8806 9.39864 11.0634 9.53343 11.1982C9.66823 11.333 9.85104 11.4088 10.0417 11.4088ZM10.0417 7.57542H12.9167C13.1073 7.57542 13.2901 7.4997 13.4249 7.36491C13.5597 7.23011 13.6354 7.0473 13.6354 6.85667C13.6354 6.66605 13.5597 6.48323 13.4249 6.34844C13.2901 6.21365 13.1073 6.13792 12.9167 6.13792H10.0417C9.85104 6.13792 9.66823 6.21365 9.53343 6.34844C9.39864 6.48323 9.32292 6.66605 9.32292 6.85667C9.32292 7.0473 9.39864 7.23011 9.53343 7.36491C9.66823 7.4997 9.85104 7.57542 10.0417 7.57542ZM1.89583 6.29413C1.89583 7.00713 2.214 7.32434 2.92604 7.32434H4.77083V2.06213C4.7691 1.9333 4.71715 1.81024 4.62604 1.71913C4.53494 1.62803 4.41187 1.57608 4.28304 1.57434C3.64962 1.57738 3.04318 1.83114 2.59636 2.28012C2.14954 2.72909 1.8987 3.33675 1.89871 3.97017L1.89583 6.29413Z" fill="black"/>
</svg>
