<svg width="20" height="20" viewBox="0 0 20 20" fill="none" xmlns="http://www.w3.org/2000/svg">
<path d="M10 19.0005C11.1821 19.002 12.3529 18.7699 13.445 18.3175C14.5372 17.8651 15.5291 17.2014 16.3639 16.3644C17.2009 15.5296 17.8646 14.5376 18.317 13.4455C18.7694 12.3533 19.0015 11.1826 19 10.0004C19.0015 8.8183 18.7694 7.64753 18.317 6.5554C17.8646 5.46326 17.2009 4.47129 16.3639 3.63649C15.5291 2.7995 14.5372 2.13573 13.445 1.68334C12.3529 1.23094 11.1821 0.998842 10 1.00037C8.81788 0.998867 7.64712 1.23098 6.55499 1.68337C5.46287 2.13576 4.4709 2.79952 3.63611 3.63649C2.79914 4.47129 2.13539 5.46326 1.683 6.5554C1.23061 7.64753 0.998501 8.8183 1.00001 10.0004C0.998476 11.1826 1.23057 12.3533 1.68297 13.4455C2.13536 14.5376 2.79912 15.5296 3.63611 16.3644C4.4709 17.2013 5.46287 17.8651 6.55499 18.3175C7.64712 18.7699 8.81788 19.002 10 19.0005Z" stroke="#8696A1" stroke-width="1.5" stroke-linejoin="round"/>
</svg>
