<svg width="20" height="20" viewBox="0 0 20 20" fill="none" xmlns="http://www.w3.org/2000/svg">
<path d="M10 18.9999C11.1821 19.0014 12.3529 18.7693 13.445 18.3169C14.5372 17.8645 15.5291 17.2007 16.3639 16.3638C17.2009 15.529 17.8646 14.537 18.317 13.4449C18.7694 12.3527 19.0015 11.1819 19 9.99982C19.0015 8.81769 18.7694 7.64692 18.317 6.55479C17.8646 5.46265 17.2009 4.47068 16.3639 3.63588C15.5291 2.79889 14.5372 2.13512 13.445 1.68273C12.3529 1.23033 11.1821 0.998232 10 0.999763C8.81788 0.998256 7.64712 1.23037 6.555 1.68276C5.46287 2.13515 4.4709 2.79891 3.63611 3.63588C2.79914 4.47068 2.13539 5.46265 1.683 6.55479C1.23061 7.64692 0.998501 8.81769 1.00001 9.99982C0.998476 11.1819 1.23057 12.3527 1.68297 13.4449C2.13536 14.537 2.79912 15.529 3.63611 16.3638C4.4709 17.2007 5.46287 17.8645 6.555 18.3169C7.64712 18.7693 8.81788 19.0014 10 18.9999Z" fill="#009EFF" stroke="#009EFF" stroke-width="1.5" stroke-linejoin="round"/>
<path d="M6.0625 9.99982L8.7625 12.6998L14.1625 7.2998" stroke="white" stroke-width="1.8" stroke-linecap="round" stroke-linejoin="round"/>
</svg>
