<svg width="12" height="12" viewBox="0 0 12 12" fill="none" xmlns="http://www.w3.org/2000/svg">
<path d="M11.6123 1.61224C11.9508 1.27379 11.9508 0.725047 11.6123 0.386592C11.2739 0.0481379 10.7251 0.0481379 10.3867 0.386592L5.99948 4.77377L1.6123 0.386592C1.27385 0.0481379 0.725108 0.0481379 0.386653 0.386592C0.0481989 0.725047 0.0481989 1.27379 0.386653 1.61224L4.77383 5.99942L0.386653 10.3866C0.0481989 10.725 0.0481989 11.2738 0.386653 11.6122C0.725108 11.9507 1.27385 11.9507 1.6123 11.6122L5.99948 7.22507L10.3867 11.6122C10.7251 11.9507 11.2739 11.9507 11.6123 11.6122C11.9508 11.2738 11.9508 10.725 11.6123 10.3866L7.22513 5.99942L11.6123 1.61224Z" fill="black" fill-opacity="0.7"/>
</svg>
