<svg width="24" height="24" viewBox="0 0 24 24" fill="none" xmlns="http://www.w3.org/2000/svg">
<path d="M5.5 9.56206C5.5 9.11356 5.86319 8.74956 6.3125 8.74956H11.1875C11.6368 8.74956 12 9.11356 12 9.56206C12 10.0106 11.6368 10.3746 11.1875 10.3746H6.3125C5.86319 10.3746 5.5 10.0106 5.5 9.56206ZM11.1875 11.9996H6.3125C5.86319 11.9996 5.5 12.3636 5.5 12.8121C5.5 13.2606 5.86319 13.6246 6.3125 13.6246H11.1875C11.6368 13.6246 12 13.2606 12 12.8121C12 12.3636 11.6368 11.9996 11.1875 11.9996ZM11.1875 15.2496H6.3125C5.86319 15.2496 5.5 15.6136 5.5 16.0621C5.5 16.5106 5.86319 16.8746 6.3125 16.8746H11.1875C11.6368 16.8746 12 16.5106 12 16.0621C12 15.6136 11.6368 15.2496 11.1875 15.2496ZM11.1875 18.4996H6.3125C5.86319 18.4996 5.5 18.8636 5.5 19.3121C5.5 19.7606 5.86319 20.1246 6.3125 20.1246H11.1875C11.6368 20.1246 12 19.7606 12 19.3121C12 18.8636 11.6368 18.4996 11.1875 18.4996ZM23.375 22.5621C23.375 23.0106 23.0118 23.3746 22.5625 23.3746H1.4375C0.988188 23.3746 0.625 23.0106 0.625 22.5621C0.625 22.1136 0.988188 21.7496 1.4375 21.7496H2.25V6.81419C2.25 6.19425 2.5945 5.63769 3.14781 5.36063L12.8978 0.485627C13.4064 0.232127 13.9963 0.258127 14.4789 0.556315C14.9616 0.854502 15.2492 1.37125 15.2492 1.93919V7.93706H20.1242C21.0204 7.93706 21.7492 8.66588 21.7492 9.56206V21.7496H22.5617C23.011 21.7496 23.375 22.1136 23.375 22.5621ZM15.25 9.56206V21.7496H20.125V9.56206H15.25ZM3.875 21.7496H13.625V1.93919L3.875 6.81419V21.7496Z" fill="black"/>
</svg>
