<svg width="24" height="17" viewBox="0 0 24 17" fill="none" xmlns="http://www.w3.org/2000/svg">
<path d="M21.5928 16.2525H3.0739C1.89358 16.2525 0.93335 15.2923 0.93335 14.112V2.14055C0.93335 0.960234 1.89358 0 3.0739 0H21.5928C22.7731 0 23.7333 0.960234 23.7333 2.14055V14.112C23.7333 15.2923 22.7731 16.2525 21.5928 16.2525ZM3.0739 1.2C2.55522 1.2 2.13335 1.62188 2.13335 2.14055V14.112C2.13335 14.6306 2.55522 15.0525 3.0739 15.0525H21.5928C22.1115 15.0525 22.5333 14.6306 22.5333 14.112V2.14055C22.5333 1.62188 22.1115 1.2 21.5928 1.2H3.0739Z" fill="black" fill-opacity="0.7"/>
<path d="M1.5332 3.521H23.1332V7.067H1.5332V3.521Z" fill="black" fill-opacity="0.7"/>
<path d="M5.7227 12.8948H4.88809C4.55668 12.8948 4.28809 12.6262 4.28809 12.2948C4.28809 11.9634 4.55668 11.6948 4.88809 11.6948H5.7227C6.0541 11.6948 6.3227 11.9634 6.3227 12.2948C6.3227 12.6262 6.0541 12.8948 5.7227 12.8948Z" fill="black" fill-opacity="0.7"/>
<path d="M12.3333 12.8948H8.55068C8.21928 12.8948 7.95068 12.6262 7.95068 12.2948C7.95068 11.9634 8.21928 11.6948 8.55068 11.6948H12.3333C12.6647 11.6948 12.9333 11.9634 12.9333 12.2948C12.9333 12.6262 12.6647 12.8948 12.3333 12.8948Z" fill="black" fill-opacity="0.7"/>
</svg>
