<svg width="50" height="50" viewBox="0 0 50 50" fill="none" xmlns="http://www.w3.org/2000/svg">
<rect width="50" height="50" rx="25" fill="#F3F3F3"/>
<path d="M30.2929 18.2929C30.6834 17.9024 31.3164 17.9024 31.707 18.2929C32.0975 18.6834 32.0975 19.3164 31.707 19.707L26.414 24.9999L31.707 30.2929L31.7753 30.3691C32.0957 30.7618 32.0731 31.3408 31.707 31.707C31.3408 32.0731 30.7618 32.0957 30.3691 31.7753L30.2929 31.707L24.9999 26.414L19.707 31.707C19.3164 32.0975 18.6834 32.0975 18.2929 31.707C17.9024 31.3164 17.9024 30.6834 18.2929 30.2929L23.5859 24.9999L18.2929 19.707L18.2245 19.6308C17.9042 19.238 17.9268 18.659 18.2929 18.2929C18.659 17.9268 19.238 17.9042 19.6308 18.2245L19.707 18.2929L24.9999 23.5859L30.2929 18.2929Z" fill="black" fill-opacity="0.3"/>
</svg>
