<svg width="16" height="15" viewBox="0 0 16 15" fill="none" xmlns="http://www.w3.org/2000/svg">
<path d="M15.6206 7.65657C15.6212 7.14647 15.5778 6.63725 15.4907 6.13452H8.38232V9.01748H12.4537C12.3704 9.47793 12.1941 9.91686 11.9353 10.3078C11.6766 10.6988 11.3408 11.0336 10.9483 11.2922V13.1636H13.3781C14.8008 11.8609 15.6206 9.93445 15.6206 7.65657Z" fill="#4285F4"/>
<path d="M8.38166 14.9711C10.4158 14.9711 12.1285 14.3078 13.3775 13.1642L10.9476 11.2928C10.2713 11.7481 9.40029 12.0081 8.38166 12.0081C6.41559 12.0081 4.74684 10.6919 4.1501 8.91821H1.64697V10.8468C2.27434 12.0865 3.23635 13.1287 4.42559 13.857C5.61482 14.5853 6.98449 14.971 8.38166 14.9711V14.9711Z" fill="#34A853"/>
<path d="M4.15048 8.91908C3.83501 7.98968 3.83501 6.9832 4.15048 6.0538V4.12524H1.64735C1.11959 5.16818 0.844727 6.31922 0.844727 7.48644C0.844727 8.65366 1.11959 9.80471 1.64735 10.8476L4.15048 8.91908Z" fill="#FBBC04"/>
<path d="M8.38166 2.9635C9.4566 2.94606 10.4953 3.34939 11.2732 4.08632L13.4246 1.94984C12.0604 0.677384 10.2531 -0.0212158 8.38166 0.000491119C6.98449 0.000554356 5.61482 0.386259 4.42559 1.11454C3.23635 1.84283 2.27434 2.88503 1.64697 4.12479L4.1501 6.05335C4.74684 4.2797 6.41559 2.9635 8.38166 2.9635Z" fill="#EA4335"/>
</svg>
