<svg width="18" height="18" viewBox="0 0 18 18" fill="none" xmlns="http://www.w3.org/2000/svg">
<g clip-path="url(#clip0_1020_406)">
<path d="M14.25 17.9997H3.75C1.68225 17.9997 0 16.3175 0 14.2497V7.29271C0 6.04396 0.618 4.88146 1.653 4.18396L6.90225 0.640963C8.1765 -0.218537 9.8235 -0.218537 11.0977 0.640963L16.3478 4.18396C17.382 4.88146 18 6.04321 18 7.29271V14.2497C18 16.3175 16.3177 17.9997 14.25 17.9997ZM9 1.49746C8.562 1.49746 8.124 1.62646 7.7415 1.88521L2.4915 5.42746C1.8705 5.84596 1.5 6.54271 1.5 7.29196V14.249C1.5 15.4895 2.5095 16.499 3.75 16.499H14.25C15.4905 16.499 16.5 15.4895 16.5 14.249V7.29271C16.5 6.54346 16.1295 5.84596 15.5093 5.42821L10.2585 1.88521C9.876 1.62646 9.438 1.49746 9 1.49746Z" fill="black"/>
<path d="M9 1.49746C8.562 1.49746 8.124 1.62646 7.7415 1.88521L2.4915 5.42746C1.8705 5.84596 1.5 6.54271 1.5 7.29196V14.249C1.5 15.4895 2.5095 16.499 3.75 16.499H14.25C15.4905 16.499 16.5 15.4895 16.5 14.249V7.29271C16.5 6.54346 16.1295 5.84596 15.5093 5.42821L10.2585 1.88521C9.876 1.62646 9.438 1.49746 9 1.49746Z" fill="black"/>
</g>
<defs>
<clipPath id="clip0_1020_406">
<rect width="18" height="18" fill="white"/>
</clipPath>
</defs>
</svg>
