<svg width="24" height="24" viewBox="0 0 24 24" fill="none" xmlns="http://www.w3.org/2000/svg">
<g clip-path="url(#clip0_411_23799)">
<path d="M15.6181 11.1283C17.1538 10.0084 18.1538 8.1958 18.1538 6.15383C18.1538 2.7606 15.3932 0 12 0C8.60677 0 5.84617 2.7606 5.84617 6.15383C5.84617 8.1958 6.84615 10.0084 8.38187 11.1283C4.56437 12.5892 1.84619 16.2905 1.84619 20.6154C1.84619 22.4816 3.36452 24 5.23079 24H18.7692C20.6355 24 22.1538 22.4816 22.1538 20.6154C22.1538 16.2905 19.4356 12.5892 15.6181 11.1283ZM7.69234 6.15383C7.69234 3.77859 9.62475 1.84617 12 1.84617C14.3752 1.84617 16.3077 3.77859 16.3077 6.15383C16.3077 8.52908 14.3752 10.4615 12 10.4615C9.62475 10.4615 7.69234 8.52908 7.69234 6.15383ZM18.7692 22.1538H5.23079C4.3825 22.1538 3.69236 21.4636 3.69236 20.6153C3.69236 16.0344 7.4191 12.3076 12 12.3076C16.581 12.3076 20.3077 16.0344 20.3077 20.6153C20.3077 21.4636 19.6175 22.1538 18.7692 22.1538Z" fill="black"/>
</g>
<defs>
<clipPath id="clip0_411_23799">
<rect width="24" height="24" fill="white"/>
</clipPath>
</defs>
</svg>
