<svg width="22" height="24" viewBox="0 0 22 24" fill="none" xmlns="http://www.w3.org/2000/svg">
<path d="M16.627 10.6427C16.627 7.09628 13.3451 4.3165 9.6527 5.17459C7.65892 5.63795 6.03606 7.24323 5.54992 9.23158C5.10546 11.0496 5.54852 12.7525 6.52788 14.0276C7.63553 15.4698 8.1895 17.2601 8.1895 19.0786V19.0802H13.8145C13.8145 17.2077 14.4708 15.4182 15.5698 13.9021C16.2339 12.986 16.627 11.8632 16.627 10.6427Z" stroke="black" stroke-width="1.2" stroke-miterlimit="10" stroke-linecap="round" stroke-linejoin="round"/>
<path d="M13.8145 19.0802V20.4865C13.8145 22.0398 12.5553 23.299 11.002 23.299C9.44872 23.299 8.18951 22.0398 8.18951 20.4865V19.0802" stroke="black" stroke-width="1.2" stroke-miterlimit="10" stroke-linecap="round" stroke-linejoin="round"/>
<path d="M11.002 2.2052V0.7052" stroke="black" stroke-width="1.2" stroke-miterlimit="10" stroke-linecap="round" stroke-linejoin="round"/>
<path d="M1.15826 10.6427H2.56451" stroke="black" stroke-width="1.2" stroke-miterlimit="10" stroke-linecap="round" stroke-linejoin="round"/>
<path d="M19.4395 10.6427H20.8458" stroke="black" stroke-width="1.2" stroke-miterlimit="10" stroke-linecap="round" stroke-linejoin="round"/>
<path d="M4.04083 17.603L5.03519 16.6086" stroke="black" stroke-width="1.2" stroke-miterlimit="10" stroke-linecap="round" stroke-linejoin="round"/>
<path d="M16.9677 4.67607L17.962 3.68171" stroke="black" stroke-width="1.2" stroke-miterlimit="10" stroke-linecap="round" stroke-linejoin="round"/>
<path d="M17.9619 17.603L16.9676 16.6086" stroke="black" stroke-width="1.2" stroke-miterlimit="10" stroke-linecap="round" stroke-linejoin="round"/>
<path d="M5.03519 4.67607L4.04083 3.68171" stroke="black" stroke-width="1.2" stroke-miterlimit="10" stroke-linecap="round" stroke-linejoin="round"/>
<path d="M11.002 9.23645L9.59576 11.3458" stroke="black" stroke-width="1.2" stroke-miterlimit="10" stroke-linecap="round" stroke-linejoin="round"/>
<path d="M9.59576 11.3458H12.4083" stroke="black" stroke-width="1.2" stroke-miterlimit="10" stroke-linecap="round" stroke-linejoin="round"/>
<path d="M12.4083 11.3458L11.002 13.4552" stroke="black" stroke-width="1.2" stroke-miterlimit="10" stroke-linecap="round" stroke-linejoin="round"/>
</svg>
