<svg width="22" height="24" viewBox="0 0 22 24" fill="none" xmlns="http://www.w3.org/2000/svg">
<path d="M11.7031 2.20312V0.703125C11.7031 0.314484 11.3886 0 11 0C10.6114 0 10.2969 0.314484 10.2969 0.703125V2.20312C10.2969 2.59177 10.6114 2.90625 11 2.90625C11.3886 2.90625 11.7031 2.59177 11.7031 2.20312Z" fill="black"/>
<path d="M2.5625 11.3438C2.95114 11.3438 3.26562 11.0293 3.26562 10.6406C3.26562 10.252 2.95114 9.9375 2.5625 9.9375H1.15625C0.767609 9.9375 0.453125 10.252 0.453125 10.6406C0.453125 11.0293 0.767609 11.3438 1.15625 11.3438H2.5625Z" fill="black"/>
<path d="M20.8438 11.3438C21.2324 11.3438 21.5469 11.0293 21.5469 10.6406C21.5469 10.252 21.2324 9.9375 20.8438 9.9375H19.4375C19.0489 9.9375 18.7344 10.252 18.7344 10.6406C18.7344 11.0293 19.0489 11.3438 19.4375 11.3438H20.8438Z" fill="black"/>
<path d="M3.54235 18.0983C3.81699 18.3729 4.26192 18.373 4.53661 18.0983L5.53088 17.104C5.80552 16.8294 5.80552 16.3844 5.53088 16.1097C5.25624 15.8351 4.81125 15.8351 4.53661 16.1097L3.54235 17.104C3.2677 17.3786 3.2677 17.8236 3.54235 18.0983Z" fill="black"/>
<path d="M18.4576 3.18295C18.183 2.90831 17.738 2.90831 17.4634 3.18295L16.4691 4.17722C16.1945 4.45186 16.1945 4.89685 16.4691 5.17149C16.7437 5.44613 17.1887 5.44617 17.4634 5.17149L18.4576 4.17722C18.7323 3.90258 18.7323 3.45764 18.4576 3.18295Z" fill="black"/>
<path d="M17.4634 16.1097C17.1887 15.8351 16.7437 15.8351 16.4691 16.1097C16.1945 16.3844 16.1945 16.8294 16.4691 17.104L17.4634 18.0983C17.738 18.3729 18.1829 18.373 18.4576 18.0983C18.7323 17.8236 18.7323 17.3786 18.4576 17.104L17.4634 16.1097Z" fill="black"/>
<path d="M4.53661 3.18295C4.26197 2.90831 3.81699 2.90831 3.54235 3.18295C3.2677 3.4576 3.2677 3.90258 3.54235 4.17722L4.53661 5.17149C4.81125 5.44613 5.25619 5.44617 5.53088 5.17149C5.80552 4.89685 5.80552 4.45186 5.53088 4.17722L4.53661 3.18295Z" fill="black"/>
<path d="M4.86007 9.07025C4.39451 11.008 4.78868 12.9216 5.97176 14.4604C6.81237 15.5453 7.30305 16.9182 7.42952 18.375H14.5753C14.7117 16.9672 15.2291 15.5757 16.1403 14.3149C16.9175 13.2395 17.3282 11.9693 17.3282 10.6406C17.3282 8.69877 16.4554 6.89084 14.9331 5.68166C13.4108 4.47247 11.4285 4.03714 9.49076 4.4855C7.23448 5.00942 5.41694 6.80773 4.86007 9.07025ZM11.39 8.64936C11.7134 8.86498 11.8007 9.30097 11.585 9.62441L10.9076 10.6406H12.4063C12.9558 10.6406 13.2906 11.2848 12.9913 11.7337L11.585 13.8431C11.4498 14.0464 11.2266 14.1562 10.9993 14.1562C10.8655 14.1562 10.7302 14.1178 10.61 14.0381C10.2866 13.8225 10.1994 13.3865 10.415 13.0631L11.0925 12.0469H9.59379C9.5936 12.0469 9.5936 12.0468 9.59346 12.0468C9.59337 12.0468 9.59323 12.0469 9.59313 12.0469C9.59271 12.0469 9.59219 12.0464 9.59177 12.0464C9.03968 12.0446 8.71221 11.3986 9.00879 10.9537L10.415 8.84436C10.6293 8.52027 11.0659 8.43444 11.39 8.64936Z" fill="black"/>
<path d="M14.5156 19.7812H7.48438V20.4844C7.48438 22.4356 9.07508 24 11 24C12.9384 24 14.5156 22.4228 14.5156 20.4844V19.7812Z" fill="black"/>
</svg>
