<svg width="22" height="22" viewBox="0 0 22 22" fill="none" xmlns="http://www.w3.org/2000/svg">
<path d="M5.7288 16.9869C4.26128 16.9869 2.95591 16.0473 2.48189 14.6484L2.44984 14.543C2.33805 14.1726 2.29122 13.861 2.29122 13.5493V7.29923L0.0673611 14.7226C-0.218657 15.8145 0.433108 16.9465 1.52666 17.2481L15.7015 21.0442C15.8784 21.09 16.0553 21.112 16.2295 21.112C17.1425 21.112 17.9767 20.5061 18.2105 19.6131L19.0363 16.9869H5.7288Z" fill="black"/>
<path d="M8.24969 7.36168C9.26083 7.36168 10.083 6.53938 10.083 5.52824C10.083 4.51711 9.26083 3.69481 8.24969 3.69481C7.23856 3.69481 6.41626 4.51711 6.41626 5.52824C6.41626 6.53938 7.23856 7.36168 8.24969 7.36168Z" fill="black"/>
<path d="M19.7082 0.944725H5.95787C4.69479 0.944725 3.6662 1.97331 3.6662 3.23656V13.32C3.6662 14.5833 4.69479 15.6119 5.95787 15.6119H19.7082C20.9714 15.6119 22 14.5833 22 13.32V3.23656C22 1.97331 20.9714 0.944725 19.7082 0.944725ZM5.95787 2.77816H19.7082C19.9613 2.77816 20.1666 2.98344 20.1666 3.23656V9.74413L17.2708 6.36513C16.9637 6.00492 16.519 5.8124 16.0415 5.80149C15.5667 5.80417 15.1212 6.01499 14.8169 6.3799L11.4122 10.4664L10.303 9.35992C9.6761 8.733 8.65573 8.733 8.02965 9.35992L5.49963 11.8891V3.23656C5.49963 2.98344 5.70491 2.77816 5.95787 2.77816Z" fill="black"/>
</svg>
