<svg width="22" height="22" viewBox="0 0 22 22" fill="none" xmlns="http://www.w3.org/2000/svg">
<path d="M16.2277 21.112C16.0545 21.112 15.8776 21.09 15.7023 21.0442L1.52666 17.2481C0.433108 16.9465 -0.218657 15.8153 0.0673611 14.7226L1.62569 8.74678C1.72103 8.38002 2.09601 8.15729 2.46444 8.25548C2.83119 8.35082 3.05208 8.72664 2.95591 9.09423L1.39741 15.0711C1.30123 15.4395 1.52028 15.8198 1.88703 15.9207L16.0545 19.715C16.4184 19.8112 16.7942 19.5948 16.8895 19.2328L17.3734 17.2801C17.4653 16.9117 17.8374 16.688 18.2058 16.7779C18.5744 16.8696 18.799 17.2417 18.7082 17.6101L18.2224 19.572C17.9775 20.5005 17.1416 21.112 16.2277 21.112Z" fill="black"/>
<path d="M19.9375 15.6119H5.72875C4.59122 15.6119 3.6662 14.6868 3.6662 13.5493V3.00728C3.6662 1.86976 4.59122 0.944733 5.72875 0.944733H19.9375C21.075 0.944733 22 1.86976 22 3.00728V13.5493C22 14.6868 21.075 15.6119 19.9375 15.6119ZM5.72875 2.31977C5.34924 2.31977 5.04123 2.62777 5.04123 3.00728V13.5493C5.04123 13.9288 5.34924 14.2368 5.72875 14.2368H19.9375C20.317 14.2368 20.625 13.9288 20.625 13.5493V3.00728C20.625 2.62777 20.317 2.31977 19.9375 2.31977H5.72875Z" fill="black"/>
<path d="M8.24969 7.36166C7.23856 7.36166 6.41626 6.53936 6.41626 5.52823C6.41626 4.51709 7.23856 3.69479 8.24969 3.69479C9.26083 3.69479 10.083 4.51709 10.083 5.52823C10.083 6.53936 9.26083 7.36166 8.24969 7.36166ZM8.24969 5.06983C7.99658 5.06983 7.79129 5.27528 7.79129 5.52823C7.79129 5.78118 7.99658 5.98663 8.24969 5.98663C8.50265 5.98663 8.70793 5.78118 8.70793 5.52823C8.70793 5.27528 8.50265 5.06983 8.24969 5.06983Z" fill="black"/>
<path d="M4.37206 14.6768C4.19615 14.6768 4.02007 14.6098 3.8863 14.4752C3.61774 14.2066 3.61774 13.7711 3.8863 13.5025L8.02969 9.3591C8.65678 8.73201 9.67698 8.73201 10.3031 9.3591L11.4114 10.4674L14.8159 6.38076C15.1202 6.01585 15.5667 5.80503 16.0407 5.80234C16.5503 5.77398 16.9629 6.00578 17.2699 6.36616L21.8332 11.6902C22.0807 11.9781 22.0467 12.4126 21.7589 12.6601C21.4702 12.9076 21.0366 12.8737 20.789 12.5859L16.224 7.25996C16.1634 7.18745 16.0892 7.19114 16.0479 7.17822C16.0086 7.17822 15.9324 7.19014 15.872 7.26164L11.9853 11.9277C11.8614 12.0761 11.681 12.1661 11.4884 12.1743C11.2922 12.1852 11.1071 12.11 10.9713 11.9735L9.33054 10.3326C9.21405 10.2161 9.11787 10.2161 9.00138 10.3326L4.85798 14.4752C4.72404 14.6098 4.54813 14.6768 4.37206 14.6768Z" fill="black"/>
</svg>
