<svg width="16" height="25" viewBox="0 0 16 25" fill="none" xmlns="http://www.w3.org/2000/svg">
<path d="M3.00098 4.75C4.24362 4.75 5.25098 3.74264 5.25098 2.5C5.25098 1.25736 4.24362 0.25 3.00098 0.25C1.75834 0.25 0.750977 1.25736 0.750977 2.5C0.750977 3.74264 1.75834 4.75 3.00098 4.75Z" fill="#1A2D3B" fill-opacity="0.4"/>
<path d="M3.00098 14.7505C4.24362 14.7505 5.25098 13.7431 5.25098 12.5005C5.25098 11.2578 4.24362 10.2505 3.00098 10.2505C1.75834 10.2505 0.750977 11.2578 0.750977 12.5005C0.750977 13.7431 1.75834 14.7505 3.00098 14.7505Z" fill="#1A2D3B" fill-opacity="0.4"/>
<path d="M3.00098 24.751C4.24362 24.751 5.25098 23.7436 5.25098 22.501C5.25098 21.2583 4.24362 20.251 3.00098 20.251C1.75834 20.251 0.750977 21.2583 0.750977 22.501C0.750977 23.7436 1.75834 24.751 3.00098 24.751Z" fill="#1A2D3B" fill-opacity="0.4"/>
<path d="M13.0015 4.75C14.2441 4.75 15.2515 3.74264 15.2515 2.5C15.2515 1.25736 14.2441 0.25 13.0015 0.25C11.7588 0.25 10.7515 1.25736 10.7515 2.5C10.7515 3.74264 11.7588 4.75 13.0015 4.75Z" fill="#1A2D3B" fill-opacity="0.4"/>
<path d="M13.0015 14.7505C14.2441 14.7505 15.2515 13.7431 15.2515 12.5005C15.2515 11.2578 14.2441 10.2505 13.0015 10.2505C11.7588 10.2505 10.7515 11.2578 10.7515 12.5005C10.7515 13.7431 11.7588 14.7505 13.0015 14.7505Z" fill="#1A2D3B" fill-opacity="0.4"/>
<path d="M13.0015 24.751C14.2441 24.751 15.2515 23.7436 15.2515 22.501C15.2515 21.2583 14.2441 20.251 13.0015 20.251C11.7588 20.251 10.7515 21.2583 10.7515 22.501C10.7515 23.7436 11.7588 24.751 13.0015 24.751Z" fill="#1A2D3B" fill-opacity="0.4"/>
</svg>
