<svg width="21" height="23" viewBox="0 0 21 23" fill="none" xmlns="http://www.w3.org/2000/svg">
<mask id="path-1-outside-1_1053_282" maskUnits="userSpaceOnUse" x="-0.5" y="0.00390625" width="22" height="23" fill="black">
<rect fill="white" x="-0.5" y="0.00390625" width="22" height="23"/>
<path fill-rule="evenodd" clip-rule="evenodd" d="M13.9644 19.0039H19C19.828 19.0039 20.5 18.3309 20.5 17.5039C20.5 17.0649 20.309 16.6499 19.967 16.3569C18.399 15.0319 17.5 13.0949 17.5 11.0419V8.00391C17.5 4.14391 14.36 1.00391 10.5 1.00391C6.64 1.00391 3.5 4.14391 3.5 8.00391V11.0419C3.5 13.0939 2.601 15.0319 1.025 16.3639C0.691 16.6499 0.5 17.0649 0.5 17.5039C0.5 18.3309 1.173 19.0039 2 19.0039H7.0356C7.27892 20.6979 8.73973 22.0039 10.5 22.0039C12.2603 22.0039 13.7211 20.6979 13.9644 19.0039ZM12.9498 19.0039C12.7175 20.1433 11.7077 21.0039 10.5 21.0039C9.29229 21.0039 8.28247 20.1433 8.05024 19.0039H12.9498ZM7.5 18.0039H2C1.724 18.0039 1.5 17.7799 1.5 17.5039C1.5 17.3579 1.564 17.2189 1.679 17.1209C3.472 15.6049 4.5 13.3899 4.5 11.0419V8.00391C4.5 4.69491 7.191 2.00391 10.5 2.00391C13.809 2.00391 16.5 4.69491 16.5 8.00391V11.0419C16.5 13.3889 17.529 15.6049 19.325 17.1239C19.436 17.2189 19.5 17.3579 19.5 17.5039C19.5 17.7799 19.276 18.0039 19 18.0039H13.5H7.5Z"/>
</mask>
<path fill-rule="evenodd" clip-rule="evenodd" d="M13.9644 19.0039H19C19.828 19.0039 20.5 18.3309 20.5 17.5039C20.5 17.0649 20.309 16.6499 19.967 16.3569C18.399 15.0319 17.5 13.0949 17.5 11.0419V8.00391C17.5 4.14391 14.36 1.00391 10.5 1.00391C6.64 1.00391 3.5 4.14391 3.5 8.00391V11.0419C3.5 13.0939 2.601 15.0319 1.025 16.3639C0.691 16.6499 0.5 17.0649 0.5 17.5039C0.5 18.3309 1.173 19.0039 2 19.0039H7.0356C7.27892 20.6979 8.73973 22.0039 10.5 22.0039C12.2603 22.0039 13.7211 20.6979 13.9644 19.0039ZM12.9498 19.0039C12.7175 20.1433 11.7077 21.0039 10.5 21.0039C9.29229 21.0039 8.28247 20.1433 8.05024 19.0039H12.9498ZM7.5 18.0039H2C1.724 18.0039 1.5 17.7799 1.5 17.5039C1.5 17.3579 1.564 17.2189 1.679 17.1209C3.472 15.6049 4.5 13.3899 4.5 11.0419V8.00391C4.5 4.69491 7.191 2.00391 10.5 2.00391C13.809 2.00391 16.5 4.69491 16.5 8.00391V11.0419C16.5 13.3889 17.529 15.6049 19.325 17.1239C19.436 17.2189 19.5 17.3579 19.5 17.5039C19.5 17.7799 19.276 18.0039 19 18.0039H13.5H7.5Z" fill="black"/>
<path d="M13.9644 19.0039V18.8039H13.7911L13.7664 18.9755L13.9644 19.0039ZM19.967 16.3569L20.0971 16.205L20.0961 16.2041L19.967 16.3569ZM1.025 16.3639L0.895896 16.2112L0.894917 16.212L1.025 16.3639ZM7.0356 19.0039L7.23357 18.9755L7.20893 18.8039H7.0356V19.0039ZM12.9498 19.0039L13.1457 19.0438L13.1946 18.8039H12.9498V19.0039ZM8.05024 19.0039V18.8039H7.80536L7.85426 19.0438L8.05024 19.0039ZM1.679 17.1209L1.54987 16.9682L1.54928 16.9687L1.679 17.1209ZM19.325 17.1239L19.455 16.972L19.4542 16.9712L19.325 17.1239ZM19 18.8039H13.9644V19.2039H19V18.8039ZM20.3 17.5039C20.3 18.2205 19.7175 18.8039 19 18.8039V19.2039C19.9385 19.2039 20.7 18.4413 20.7 17.5039H20.3ZM19.8369 16.5088C20.1352 16.7643 20.3 17.1241 20.3 17.5039H20.7C20.7 17.0057 20.4828 16.5355 20.0971 16.205L19.8369 16.5088ZM17.3 11.0419C17.3 13.1538 18.2249 15.1467 19.8379 16.5097L20.0961 16.2041C18.5731 14.9172 17.7 13.036 17.7 11.0419H17.3ZM17.3 8.00391V11.0419H17.7V8.00391H17.3ZM10.5 1.20391C14.2495 1.20391 17.3 4.25436 17.3 8.00391H17.7C17.7 4.03345 14.4705 0.803906 10.5 0.803906V1.20391ZM3.7 8.00391C3.7 4.25436 6.75046 1.20391 10.5 1.20391V0.803906C6.52954 0.803906 3.3 4.03345 3.3 8.00391H3.7ZM3.7 11.0419V8.00391H3.3V11.0419H3.7ZM1.1541 16.5167C2.77495 15.1467 3.7 13.1529 3.7 11.0419H3.3C3.3 13.0349 2.42705 14.9171 0.895899 16.2112L1.1541 16.5167ZM0.7 17.5039C0.7 17.1234 0.865418 16.7639 1.15508 16.5158L0.894917 16.212C0.516583 16.536 0.3 17.0064 0.3 17.5039H0.7ZM2 18.8039C1.28346 18.8039 0.7 18.2204 0.7 17.5039H0.3C0.3 18.4414 1.06254 19.2039 2 19.2039V18.8039ZM7.0356 18.8039H2V19.2039H7.0356V18.8039ZM10.5 21.8039C8.84073 21.8039 7.46296 20.5725 7.23357 18.9755L6.83763 19.0323C7.09487 20.8233 8.63872 22.2039 10.5 22.2039V21.8039ZM13.7664 18.9755C13.537 20.5725 12.1593 21.8039 10.5 21.8039V22.2039C12.3613 22.2039 13.9051 20.8233 14.1624 19.0323L13.7664 18.9755ZM10.5 21.2039C11.8048 21.2039 12.8949 20.2744 13.1457 19.0438L12.7538 18.964C12.5401 20.0123 11.6106 20.8039 10.5 20.8039V21.2039ZM7.85426 19.0438C8.10507 20.2744 9.19516 21.2039 10.5 21.2039V20.8039C9.38943 20.8039 8.45988 20.0123 8.24621 18.964L7.85426 19.0438ZM12.9498 18.8039H8.05024V19.2039H12.9498V18.8039ZM2 18.2039H7.5V17.8039H2V18.2039ZM1.3 17.5039C1.3 17.8904 1.61354 18.2039 2 18.2039V17.8039C1.83446 17.8039 1.7 17.6694 1.7 17.5039H1.3ZM1.54928 16.9687C1.3904 17.1041 1.3 17.2984 1.3 17.5039H1.7C1.7 17.4174 1.7376 17.3337 1.80872 17.2731L1.54928 16.9687ZM4.3 11.0419C4.3 13.331 3.29793 15.4902 1.54987 16.9682L1.80813 17.2736C3.64607 15.7196 4.7 13.4488 4.7 11.0419H4.3ZM4.3 8.00391V11.0419H4.7V8.00391H4.3ZM10.5 1.80391C7.08054 1.80391 4.3 4.58445 4.3 8.00391H4.7C4.7 4.80536 7.30146 2.20391 10.5 2.20391V1.80391ZM16.7 8.00391C16.7 4.58445 13.9195 1.80391 10.5 1.80391V2.20391C13.6985 2.20391 16.3 4.80536 16.3 8.00391H16.7ZM16.7 11.0419V8.00391H16.3V11.0419H16.7ZM19.4542 16.9712C17.703 15.4901 16.7 13.3299 16.7 11.0419H16.3C16.3 13.4479 17.355 15.7197 19.1958 17.2766L19.4542 16.9712ZM19.7 17.5039C19.7 17.2994 19.6104 17.1049 19.455 16.972L19.195 17.2759C19.2616 17.3329 19.3 17.4164 19.3 17.5039H19.7ZM19 18.2039C19.3865 18.2039 19.7 17.8904 19.7 17.5039H19.3C19.3 17.6694 19.1655 17.8039 19 17.8039V18.2039ZM13.5 18.2039H19V17.8039H13.5V18.2039ZM7.5 18.2039H13.5V17.8039H7.5V18.2039Z" fill="black" mask="url(#path-1-outside-1_1053_282)"/>
</svg>
