<svg width="22" height="26" viewBox="0 0 22 26" fill="none" xmlns="http://www.w3.org/2000/svg">
<path d="M19.637 6.40918C19.637 6.54554 19.637 6.68191 19.5007 6.81827C18.4098 12.2728 14.8643 14.0455 10.2279 14.0455H7.90975C7.36429 14.0455 6.81886 14.4546 6.81886 15.0001L5.59157 22.6365L5.31885 24.8183C5.31885 25.2274 5.59157 25.5001 5.86429 25.5001H10.0916C10.637 25.5001 11.0461 25.091 11.0461 24.6819V24.4092L11.8643 19.5001V19.2274C12.0007 18.6819 12.4098 18.4092 12.8188 18.4092H13.5007C17.5916 18.4092 20.7279 16.7728 21.5461 12.0001C21.9552 9.95464 21.6825 8.31827 20.7279 7.22736C20.4552 6.95464 20.0461 6.68191 19.637 6.40918Z" fill="#2199D6"/>
<path d="M18.5454 5.99967C18.409 5.99967 18.2727 5.8633 17.9999 5.8633C17.8636 5.8633 17.5908 5.72694 17.4545 5.72694C16.7726 5.59057 16.0908 5.59058 15.409 5.59058H9.13629C8.99993 5.59058 8.86356 5.59057 8.7272 5.72694C8.45447 5.8633 8.18175 6.13603 8.18175 6.40876L6.81812 14.8633V15.136C6.95448 14.5906 7.36355 14.1815 7.90901 14.1815H10.2272C14.8636 14.1815 18.409 12.2724 19.4999 6.95421C19.4999 6.81785 19.4999 6.68149 19.6363 6.54512C19.3636 6.40876 19.0908 6.2724 18.8181 6.13603C18.6817 5.99967 18.5454 5.99967 18.5454 5.99967Z" fill="#252C5E"/>
<path d="M8.18182 6.40909C8.18182 6.13636 8.45454 5.86363 8.72727 5.72727C8.86363 5.72727 9 5.59091 9.13636 5.59091H15.4091C16.0909 5.59091 16.9091 5.59091 17.4545 5.72727C17.5909 5.72727 17.8636 5.72727 18 5.86364C18.1364 5.86364 18.2727 6 18.5454 6C18.6818 6 18.6818 6 18.8182 6.13636C19.0909 6.27273 19.3636 6.40909 19.6364 6.54545C19.9091 4.5 19.6364 3.13636 18.5454 1.90909C17.3182 0.545452 15.1364 0 12.4091 0H4.36363C3.81818 0 3.27272 0.409087 3.27272 0.954541L0 21.9545C0 22.3636 0.272727 22.7727 0.681818 22.7727H5.5909L6.81818 14.8636L8.18182 6.40909Z" fill="#263577"/>
</svg>
