<svg width="20" height="20" viewBox="0 0 20 20" fill="none" xmlns="http://www.w3.org/2000/svg">
<path d="M12.752 9.16795L9.555 7.03595C9.40426 6.93538 9.22902 6.87765 9.04802 6.86895C8.86701 6.86025 8.68705 6.9009 8.52735 6.98655C8.36766 7.0722 8.23424 7.19963 8.14136 7.35523C8.04847 7.51082 7.99961 7.68874 8 7.86995V12.1329C7.99998 12.314 8.0491 12.4916 8.14213 12.647C8.23516 12.8023 8.36861 12.9294 8.52824 13.0148C8.68787 13.1002 8.86769 13.1407 9.04852 13.1319C9.22935 13.1231 9.4044 13.0654 9.555 12.9649L12.752 10.8329C12.889 10.7416 13.0013 10.6179 13.0789 10.4728C13.1566 10.3276 13.1972 10.1656 13.1972 10.0009C13.1972 9.83634 13.1566 9.67427 13.0789 9.52913C13.0013 9.38399 12.889 9.25927 12.752 9.16795Z" stroke="black" stroke-opacity="0.8" stroke-width="1.4" stroke-linecap="round" stroke-linejoin="round"/>
<path d="M19 10C19 11.1819 18.7672 12.3522 18.3149 13.4442C17.8626 14.5361 17.1997 15.5282 16.364 16.364C15.5282 17.1997 14.5361 17.8626 13.4442 18.3149C12.3522 18.7672 11.1819 19 10 19C8.8181 19 7.64778 18.7672 6.55585 18.3149C5.46392 17.8626 4.47177 17.1997 3.63604 16.364C2.80031 15.5282 2.13738 14.5361 1.68508 13.4442C1.23279 12.3522 1 11.1819 1 10C1 7.61305 1.94821 5.32387 3.63604 3.63604C5.32387 1.94821 7.61305 1 10 1C12.3869 1 14.6761 1.94821 16.364 3.63604C18.0518 5.32387 19 7.61305 19 10Z" stroke="black" stroke-opacity="0.8" stroke-width="1.4" stroke-linecap="round" stroke-linejoin="round"/>
</svg>
