<svg width="25" height="25" viewBox="0 0 25 25" fill="none" xmlns="http://www.w3.org/2000/svg">
<rect width="24.2424" height="24.2424" rx="12.1212" fill="#1A2D3B"/>
<path d="M15.4798 15.9597H8.76264C8.63539 15.9597 8.51335 16.0103 8.42337 16.1003C8.33339 16.1902 8.28284 16.3123 8.28284 16.4395C8.28284 16.5668 8.33339 16.6888 8.42337 16.7788C8.51335 16.8688 8.63539 16.9193 8.76264 16.9193H15.4798C15.6071 16.9193 15.7291 16.8688 15.8191 16.7788C15.9091 16.6888 15.9596 16.5668 15.9596 16.4395C15.9596 16.3123 15.9091 16.1902 15.8191 16.1003C15.7291 16.0103 15.6071 15.9597 15.4798 15.9597ZM8.76264 15.0001H8.80582L10.8066 14.8178C11.0257 14.796 11.2307 14.6994 11.3871 14.5443L15.7053 10.2261C15.8729 10.0491 15.9635 9.8128 15.9572 9.56907C15.9509 9.32535 15.8482 9.09406 15.6717 8.92589L14.3571 7.61124C14.1855 7.45007 13.9607 7.3576 13.7253 7.35141C13.49 7.34521 13.2606 7.42574 13.0808 7.57765L8.76264 11.8958C8.60755 12.0522 8.51099 12.2572 8.48915 12.4764L8.28284 14.4771C8.27638 14.5474 8.28549 14.6183 8.30955 14.6846C8.3336 14.751 8.37199 14.8112 8.42198 14.861C8.46681 14.9055 8.51998 14.9406 8.57844 14.9645C8.6369 14.9884 8.69949 15.0005 8.76264 15.0001ZM13.6902 8.28296L15 9.59281L14.0404 10.5284L12.7546 9.24255L13.6902 8.28296ZM9.41996 12.558L12.1212 9.87589L13.4167 11.1713L10.7298 13.8582L9.29041 13.9926L9.41996 12.558Z" fill="white"/>
</svg>
