<svg width="13" height="13" viewBox="0 0 13 13" fill="none" xmlns="http://www.w3.org/2000/svg">
<path d="M0.0714722 4.36097V9.71811C0.0714722 11.486 1.5179 12.9324 3.28576 12.9324H9.71433C11.4822 12.9324 12.9286 11.486 12.9286 9.71811V4.36097H0.0714722ZM9.71433 3.28954H12.9286C12.9286 1.52169 11.4822 0.0752563 9.71433 0.0752563H8.10719L9.71433 3.28954ZM5.96433 3.28954H8.6429L7.03576 0.0752563H4.35719L5.96433 3.28954ZM0.0714722 3.28954H4.8929L3.28576 0.0752563C1.5179 0.0752563 0.0714722 1.52169 0.0714722 3.28954ZM5.42862 10.2538C5.16076 10.2538 4.8929 9.98597 4.8929 9.71811V6.50383C4.8929 6.28954 5.00004 6.12883 5.16076 6.02169C5.32147 5.91454 5.53576 5.91454 5.69647 6.02169L8.37504 7.62883C8.53576 7.73597 8.6429 7.89669 8.6429 8.11097C8.6429 8.32526 8.53576 8.48597 8.37504 8.59311L5.69647 10.2003C5.6429 10.2538 5.53576 10.2538 5.42862 10.2538Z" fill="white"/>
</svg>
