<svg width="18" height="16" viewBox="0 0 18 16" fill="none" xmlns="http://www.w3.org/2000/svg">
<path d="M17.0833 7.41667L10.4166 0.75C10.0833 0.416667 9.58329 0.416667 9.24996 0.75C9.08329 0.916667 8.99996 1.08333 8.99996 1.33333V4.25C4.24996 4.66667 0.666626 8.66667 0.666626 13.4167V14.6667C0.666626 15.1667 0.999959 15.5 1.49996 15.5C1.74996 15.5 1.99996 15.4167 2.16663 15.1667C3.83329 13.1667 6.16663 12 8.74996 11.8333H8.99996V14.6667C8.99996 15.1667 9.33329 15.5 9.83329 15.5C10.0833 15.5 10.25 15.4167 10.4166 15.25L17.0833 8.58333C17.4166 8.25 17.4166 7.75 17.0833 7.41667Z" fill="black" fill-opacity="0.3"/>
</svg>
