<svg width="16" height="16" viewBox="0 0 16 16" fill="none" xmlns="http://www.w3.org/2000/svg">
<path d="M8 15.4532C7.81352 15.4532 7.63468 15.3791 7.50282 15.2473C7.37095 15.1154 7.29688 14.9366 7.29688 14.7501C7.29688 14.5636 7.37095 14.3848 7.50282 14.2529C7.63468 14.1211 7.81352 14.047 8 14.047C9.42448 14.0469 10.8032 13.544 11.8932 12.6269C12.9831 11.7097 13.7143 10.4373 13.9579 9.03374C14.2014 7.63023 13.9416 6.1858 13.2243 4.95508C12.5071 3.72435 11.3783 2.78636 10.0371 2.30644C9.94996 2.27566 9.86971 2.228 9.80098 2.16617C9.73225 2.10435 9.67639 2.02957 9.63659 1.94613C9.5968 1.86269 9.57385 1.77222 9.56906 1.67989C9.56427 1.58757 9.57774 1.49521 9.60869 1.4081C9.63964 1.32099 9.68747 1.24083 9.74944 1.17223C9.81141 1.10363 9.88629 1.04792 9.96982 1.00829C10.0533 0.968664 10.1439 0.9459 10.2362 0.9413C10.3285 0.936701 10.4209 0.950357 10.5079 0.981486C12.1615 1.57238 13.5534 2.72817 14.4381 4.24504C15.3228 5.76191 15.6435 7.54245 15.3437 9.27269C15.0438 11.0029 14.1427 12.5717 12.7992 13.7024C11.4556 14.8332 9.75602 15.4532 8 15.4532Z" fill="black"/>
<path d="M5.7275 15.0593C5.64738 15.0592 5.56786 15.0455 5.49237 15.0186C4.71012 14.7403 3.98011 14.3328 3.33274 13.8129C3.26067 13.7551 3.20069 13.6837 3.15621 13.6028C3.11174 13.5218 3.08365 13.4329 3.07354 13.3411C3.05311 13.1557 3.10718 12.9698 3.22384 12.8242C3.34051 12.6787 3.51021 12.5855 3.69561 12.565C3.88102 12.5446 4.06694 12.5987 4.21249 12.7153C4.73736 13.1369 5.3291 13.4675 5.96316 13.6937C6.11932 13.7492 6.25084 13.8582 6.3345 14.0012C6.41816 14.1443 6.44858 14.3124 6.4204 14.4757C6.39221 14.639 6.30723 14.7872 6.18045 14.8939C6.05367 15.0007 5.89325 15.0593 5.7275 15.0593ZM2.28354 12.2951C2.16444 12.2955 2.04721 12.2655 1.94296 12.2079C1.83871 12.1503 1.75088 12.0671 1.68781 11.966C1.24504 11.2636 0.923685 10.4917 0.737214 9.68253C0.716397 9.59254 0.713529 9.49932 0.728773 9.40822C0.744017 9.31712 0.777074 9.22991 0.826054 9.1516C0.875034 9.07328 0.938974 9.00539 1.01422 8.95181C1.08946 8.89823 1.17453 8.86002 1.26456 8.83935C1.31678 8.82713 1.37022 8.82086 1.42386 8.82066C1.58294 8.82038 1.73738 8.87432 1.8617 8.97357C1.98602 9.07283 2.07281 9.21149 2.10776 9.36669C2.25914 10.0225 2.51956 10.6483 2.87817 11.2179C2.97734 11.3757 3.00982 11.5665 2.96847 11.7483C2.92712 11.9301 2.81532 12.088 2.65762 12.1874C2.54545 12.2576 2.41585 12.2949 2.28354 12.2951ZM1.2132 7.98792C1.12138 7.97838 1.03234 7.95082 0.951191 7.90682C0.870039 7.86282 0.798364 7.80325 0.740271 7.73151C0.682177 7.65977 0.638807 7.57727 0.612643 7.48875C0.586479 7.40022 0.578036 7.3074 0.587797 7.21561C0.673795 6.3899 0.898031 5.58453 1.25113 4.83319C1.30817 4.71246 1.39824 4.61036 1.51092 4.53871C1.62359 4.46706 1.75426 4.4288 1.88779 4.42834C2.00618 4.42845 2.12263 4.45843 2.22636 4.51551C2.33008 4.5726 2.41772 4.65494 2.48115 4.75491C2.54458 4.85488 2.58176 4.96924 2.58923 5.08739C2.5967 5.20555 2.57423 5.32369 2.52389 5.43085C2.23772 6.04016 2.05602 6.69324 1.98639 7.36279C1.9687 7.53563 1.88744 7.69574 1.75839 7.81206C1.62933 7.92838 1.46167 7.99261 1.28793 7.99231C1.26296 7.99222 1.23801 7.99076 1.2132 7.98792ZM3.16244 3.99493C3.02421 3.99485 2.88906 3.95404 2.77389 3.8776C2.65871 3.80116 2.56861 3.69248 2.51484 3.56514C2.46107 3.43779 2.44602 3.29742 2.47156 3.16157C2.4971 3.02571 2.5621 2.90039 2.65844 2.80127C3.2369 2.20639 3.91054 1.71218 4.65164 1.33899C4.81829 1.25525 5.01137 1.24112 5.18844 1.29969C5.36551 1.35826 5.51207 1.48475 5.59591 1.65135C5.67976 1.81794 5.69402 2.01101 5.63557 2.18812C5.57711 2.36522 5.45072 2.51187 5.28418 2.59583C4.68244 2.89819 4.13562 3.29926 3.66644 3.78237C3.60098 3.84979 3.52263 3.90335 3.43604 3.93987C3.34946 3.97639 3.25641 3.99511 3.16244 3.99493ZM7.10654 2.01135C6.92812 2.01109 6.75649 1.94301 6.6264 1.82091C6.49631 1.69881 6.4175 1.53182 6.40594 1.35379C6.39439 1.17575 6.45094 0.999976 6.56415 0.862081C6.67735 0.724186 6.83875 0.634482 7.01562 0.611146C7.342 0.568306 7.67083 0.546837 8 0.546875C8.18648 0.546875 8.36532 0.620954 8.49719 0.752816C8.62905 0.884677 8.70312 1.06352 8.70312 1.25C8.70312 1.43648 8.62905 1.61532 8.49719 1.74718C8.36532 1.87905 8.18648 1.95312 8 1.95312C7.73209 1.9532 7.46447 1.97063 7.19882 2.00531C7.16821 2.00924 7.13739 2.01126 7.10654 2.01135Z" fill="black"/>
<path d="M8 11.5156C7.81357 11.5155 7.63483 11.4413 7.50301 11.3095C7.37118 11.1777 7.29705 10.9989 7.29688 10.8125V5.1875C7.29688 5.00102 7.37095 4.82218 7.50282 4.69032C7.63468 4.55845 7.81352 4.48438 8 4.48438C8.18648 4.48438 8.36532 4.55845 8.49718 4.69032C8.62905 4.82218 8.70312 5.00102 8.70312 5.1875V10.8125C8.70295 10.9989 8.62882 11.1777 8.49699 11.3095C8.36517 11.4413 8.18643 11.5155 8 11.5156Z" fill="black"/>
<path d="M5.1875 8.70312C5.00102 8.70312 4.82218 8.62905 4.69032 8.49718C4.55845 8.36532 4.48438 8.18648 4.48438 8C4.48438 7.81352 4.55845 7.63468 4.69032 7.50282C4.82218 7.37095 5.00102 7.29688 5.1875 7.29688H10.8125C10.999 7.29688 11.1778 7.37095 11.3097 7.50282C11.4415 7.63468 11.5156 7.81352 11.5156 8C11.5156 8.18648 11.4415 8.36532 11.3097 8.49718C11.1778 8.62905 10.999 8.70312 10.8125 8.70312H5.1875Z" fill="black"/>
</svg>
