<svg width="24" height="20" viewBox="0 0 24 20" fill="none" xmlns="http://www.w3.org/2000/svg">
<path d="M13.6071 0.332947H4.48088C2.21691 0.332947 0.375 2.17485 0.375 4.43882V9.30032C0.375 11.5643 2.21691 13.4062 4.48088 13.4062H4.78144V16.3228C4.78144 16.4366 4.84997 16.5391 4.95502 16.5826C4.98984 16.5971 5.02636 16.6041 5.06264 16.6041C5.13581 16.6041 5.20772 16.5755 5.26153 16.5217L8.37834 13.4062H13.6071C15.8703 13.4062 17.7116 11.5643 17.7116 9.30032V4.43882C17.7116 2.17485 15.8703 0.332947 13.6071 0.332947ZM5.48236 7.77838C4.98234 7.77838 4.57355 7.36963 4.57355 6.86957C4.57355 6.36951 4.9823 5.96076 5.48236 5.96076C5.98242 5.96076 6.39117 6.36951 6.39117 6.86957C6.39117 7.36963 5.98242 7.77838 5.48236 7.77838ZM9.04402 7.77838C8.544 7.77838 8.1352 7.36963 8.1352 6.86957C8.1352 6.36951 8.54395 5.96076 9.04402 5.96076C9.54408 5.96076 9.95147 6.36951 9.95147 6.86957C9.95147 7.36963 9.54408 7.77838 9.04402 7.77838ZM12.6057 7.77838C12.1043 7.77838 11.6969 7.36963 11.6969 6.86957C11.6969 6.36951 12.1043 5.96076 12.6057 5.96076C13.107 5.96076 13.5131 6.36951 13.5131 6.86957C13.5131 7.36963 13.1057 7.77838 12.6057 7.77838ZM23.625 7.50178V12.3633C23.625 14.6265 21.7838 16.4678 19.5206 16.4678H19.2187V19.3858C19.2187 19.4995 19.1501 19.6021 19.045 19.6456C19.0103 19.66 18.9737 19.667 18.9375 19.667C18.8642 19.667 18.7923 19.6385 18.7386 19.5847L15.6217 16.4678H10.3943C9.44855 16.4678 8.54156 16.1349 7.82086 15.5542L8.84433 14.5312H13.6072C16.4908 14.5312 18.8367 12.1846 18.8367 9.30027V4.43877C18.8367 4.08173 18.8007 3.73298 18.7322 3.39585H19.5206C21.7838 3.39585 23.625 5.23776 23.625 7.50173V7.50178Z" fill="black"/>
</svg>
