<svg width="24" height="20" viewBox="0 0 24 20" fill="none" xmlns="http://www.w3.org/2000/svg">
<path d="M13.5674 0.25415C15.4848 0.254222 17.1129 1.50995 17.6768 3.24146H19.334C21.7167 3.24146 23.6553 5.18043 23.6553 7.56372V12.3049C23.6552 14.6804 21.7293 16.6135 19.3575 16.6262V19.1536C19.3573 19.393 19.2134 19.6088 18.9922 19.7004C18.919 19.7308 18.8419 19.7453 18.7657 19.7454C18.6117 19.7454 18.4601 19.6856 18.3467 19.5725L15.4014 16.6272H10.4337C9.16169 16.6271 7.95749 16.0537 7.14264 15.0959L5.65533 16.5852C5.54209 16.6984 5.3904 16.7589 5.23639 16.759C5.16004 16.759 5.08216 16.7435 5.00885 16.7131C4.7878 16.6214 4.6437 16.4056 4.64362 16.1663V13.6389C2.27114 13.6261 0.344788 11.6931 0.344788 9.31763V4.57642C0.344953 2.19326 2.28394 0.25429 4.66705 0.25415H13.5674ZM17.8897 4.57642V9.31763C17.8897 11.7009 15.9507 13.6398 13.5674 13.6399H8.59967L7.98346 14.2551C8.57539 14.996 9.47899 15.4415 10.4337 15.4417H15.6465C15.8036 15.4417 15.9544 15.5044 16.0655 15.6155L18.1729 17.7229V16.0344C18.173 15.7073 18.4385 15.4417 18.7657 15.4417H19.334C21.0631 15.4416 22.4697 14.0348 22.4698 12.3049V7.56372C22.4698 5.83384 21.0632 4.42603 19.334 4.42603H17.8868C17.8886 4.47588 17.8897 4.526 17.8897 4.57642ZM4.66705 1.4397C2.93737 1.43981 1.53053 2.84679 1.53033 4.57642V9.31763C1.53033 11.0475 2.9373 12.4552 4.66705 12.4553H5.23639C5.56328 12.4555 5.82795 12.7202 5.82819 13.0471V14.7356L7.93561 12.6282C8.04668 12.5172 8.19754 12.4553 8.35455 12.4553H13.5674C15.2972 12.4552 16.7042 11.0474 16.7042 9.31763V4.57642C16.704 2.84675 15.2971 1.43981 13.5674 1.4397H4.66705ZM5.64362 6.03052C6.14783 6.03052 6.56061 6.4433 6.56061 6.94751C6.56046 7.45159 6.14773 7.86353 5.64362 7.86353C5.13965 7.86334 4.72775 7.45148 4.7276 6.94751C4.7276 6.44341 5.13956 6.0307 5.64362 6.03052ZM9.11725 6.03052C9.62146 6.03052 10.0333 6.4433 10.0333 6.94751C10.0331 7.45159 9.62137 7.86353 9.11725 7.86353C8.61315 7.8635 8.20138 7.45158 8.20123 6.94751C8.20123 6.44332 8.61306 6.03054 9.11725 6.03052ZM12.5909 6.03052C13.0964 6.03065 13.5059 6.44347 13.5059 6.94751C13.5058 7.45145 13.0949 7.86339 12.5909 7.86353C12.0868 7.86353 11.674 7.4516 11.6739 6.94751C11.6739 6.44333 12.0853 6.03052 12.5909 6.03052Z" fill="black" stroke="black" stroke-width="0.06"/>
</svg>
