<svg width="24" height="21" viewBox="0 0 24 21" fill="none" xmlns="http://www.w3.org/2000/svg">
<path d="M15.9 4.79997C15.9 5.83432 15.4891 6.8263 14.7577 7.55769C14.0263 8.28908 13.0344 8.69997 12 8.69997C10.9657 8.69997 9.97369 8.28908 9.2423 7.55769C8.51091 6.8263 8.10001 5.83432 8.10001 4.79997C8.10001 3.76563 8.51091 2.77365 9.2423 2.04225C9.97369 1.31086 10.9657 0.899971 12 0.899971C13.0344 0.899971 14.0263 1.31086 14.7577 2.04225C15.4891 2.77365 15.9 3.76563 15.9 4.79997ZM22.4 7.39997C22.4 8.08953 22.1261 8.75085 21.6385 9.23845C21.1509 9.72604 20.4896 9.99997 19.8 9.99997C19.1105 9.99997 18.4491 9.72604 17.9615 9.23845C17.4739 8.75085 17.2 8.08953 17.2 7.39997C17.2 6.71041 17.4739 6.04909 17.9615 5.56149C18.4491 5.0739 19.1105 4.79997 19.8 4.79997C20.4896 4.79997 21.1509 5.0739 21.6385 5.56149C22.1261 6.04909 22.4 6.71041 22.4 7.39997ZM17.2 16.5C17.2 15.1208 16.6522 13.7982 15.677 12.823C14.7018 11.8478 13.3791 11.3 12 11.3C10.6209 11.3 9.29825 11.8478 8.32306 12.823C7.34787 13.7982 6.80001 15.1208 6.80001 16.5V20.4H17.2V16.5ZM6.80001 7.39997C6.80001 8.08953 6.52609 8.75085 6.03849 9.23845C5.5509 9.72604 4.88958 9.99997 4.20001 9.99997C3.51045 9.99997 2.84913 9.72604 2.36154 9.23845C1.87394 8.75085 1.60001 8.08953 1.60001 7.39997C1.60001 6.71041 1.87394 6.04909 2.36154 5.56149C2.84913 5.0739 3.51045 4.79997 4.20001 4.79997C4.88958 4.79997 5.5509 5.0739 6.03849 5.56149C6.52609 6.04909 6.80001 6.71041 6.80001 7.39997ZM19.8 20.4V16.5C19.8003 15.1784 19.4648 13.8785 18.825 12.7222C19.4014 12.5747 20.0038 12.5608 20.5863 12.6815C21.1689 12.8022 21.7162 13.0544 22.1864 13.4189C22.6567 13.7833 23.0375 14.2503 23.2998 14.7842C23.5621 15.3182 23.699 15.905 23.7 16.5V20.4H19.8ZM5.17501 12.7222C4.53523 13.8785 4.19974 15.1784 4.20001 16.5V20.4H0.300015V16.5C0.299764 15.9046 0.435817 15.3171 0.697746 14.7825C0.959675 14.2479 1.34053 13.7803 1.81111 13.4156C2.2817 13.0509 2.82953 12.7988 3.41262 12.6786C3.9957 12.5584 4.59857 12.5733 5.17501 12.7222Z" fill="black"/>
</svg>
