<svg width="24" height="20" viewBox="0 0 24 20" fill="none" xmlns="http://www.w3.org/2000/svg">
<path d="M17.4167 18.6667H22.8333V16.5C22.8333 15.8246 22.6228 15.1659 22.2311 14.6157C21.8395 14.0654 21.2861 13.6508 20.648 13.4296C20.0098 13.2083 19.3186 13.1914 18.6704 13.3811C18.0221 13.5708 17.4491 13.9578 17.031 14.4882M17.4167 18.6667H6.58333M17.4167 18.6667V16.5C17.4167 15.7893 17.2802 15.1101 17.031 14.4882M17.031 14.4882C16.6287 13.4829 15.9344 12.6211 15.0377 12.014C14.1409 11.407 13.0829 11.0826 12 11.0826C10.9171 11.0826 9.85907 11.407 8.96234 12.014C8.0656 12.6211 7.3713 13.4829 6.969 14.4882M6.58333 18.6667H1.16667V16.5C1.16672 15.8246 1.3772 15.1659 1.76885 14.6157C2.1605 14.0654 2.71387 13.6508 3.35202 13.4296C3.99018 13.2083 4.68141 13.1914 5.32963 13.3811C5.97786 13.5708 6.55087 13.9578 6.969 14.4882M6.58333 18.6667V16.5C6.58333 15.7893 6.71983 15.1101 6.969 14.4882M15.25 4.58333C15.25 5.44528 14.9076 6.27193 14.2981 6.88143C13.6886 7.49092 12.862 7.83333 12 7.83333C11.138 7.83333 10.3114 7.49092 9.7019 6.88143C9.09241 6.27193 8.75 5.44528 8.75 4.58333C8.75 3.72137 9.09241 2.89472 9.7019 2.28523C10.3114 1.67574 11.138 1.33333 12 1.33333C12.862 1.33333 13.6886 1.67574 14.2981 2.28523C14.9076 2.89472 15.25 3.72137 15.25 4.58333ZM21.75 7.83333C21.75 8.40796 21.5217 8.95906 21.1154 9.36539C20.7091 9.77172 20.158 10 19.5833 10C19.0087 10 18.4576 9.77172 18.0513 9.36539C17.6449 8.95906 17.4167 8.40796 17.4167 7.83333C17.4167 7.25869 17.6449 6.70759 18.0513 6.30126C18.4576 5.89494 19.0087 5.66666 19.5833 5.66666C20.158 5.66666 20.7091 5.89494 21.1154 6.30126C21.5217 6.70759 21.75 7.25869 21.75 7.83333ZM6.58333 7.83333C6.58333 8.40796 6.35506 8.95906 5.94873 9.36539C5.5424 9.77172 4.9913 10 4.41667 10C3.84203 10 3.29093 9.77172 2.8846 9.36539C2.47827 8.95906 2.25 8.40796 2.25 7.83333C2.25 7.25869 2.47827 6.70759 2.8846 6.30126C3.29093 5.89494 3.84203 5.66666 4.41667 5.66666C4.9913 5.66666 5.5424 5.89494 5.94873 6.30126C6.35506 6.70759 6.58333 7.25869 6.58333 7.83333Z" stroke="black" stroke-width="1.5" stroke-linecap="round" stroke-linejoin="round"/>
</svg>
