<svg width="13" height="14" viewBox="0 0 13 14" fill="none" xmlns="http://www.w3.org/2000/svg">
<path d="M11.7106 5.66885V3.43955C8.79654 3.3165 8.70279 0.668457 8.70279 0.419629V0.400879H6.45044V9.0833C6.45019 9.45849 6.33164 9.82405 6.11164 10.128C5.89164 10.4319 5.5814 10.6587 5.22505 10.7761C4.86871 10.8935 4.48441 10.8956 4.12683 10.782C3.76925 10.6684 3.45659 10.4449 3.23335 10.1434C3.0101 9.84185 2.88764 9.47758 2.88337 9.10242C2.8791 8.72725 2.99325 8.36029 3.20958 8.05374C3.42591 7.7472 3.7334 7.51668 4.08831 7.39497C4.44321 7.27327 4.82746 7.26659 5.18638 7.37588V5.07666C5.01382 5.05452 4.84003 5.04343 4.66607 5.04346C3.86706 5.04346 3.086 5.28039 2.42165 5.72429C1.7573 6.1682 1.2395 6.79913 0.933737 7.53732C0.627971 8.2755 0.547969 9.08778 0.703847 9.87144C0.859725 10.6551 1.24448 11.3749 1.80947 11.9399C2.37445 12.5049 3.09428 12.8896 3.87793 13.0455C4.66158 13.2014 5.47386 13.1214 6.21205 12.8156C6.95023 12.5099 7.58117 11.9921 8.02507 11.3277C8.46898 10.6634 8.70591 9.88231 8.70591 9.0833C8.70591 9.02666 8.70591 8.97041 8.702 8.91455V4.63916C9.73911 5.58799 11.7106 5.66885 11.7106 5.66885Z" fill="#00F6EF"/>
<path d="M12.3738 6.21885V3.98838C9.45935 3.86533 9.36599 1.21728 9.36599 0.968457V0.949707H7.11365V9.63213C7.11348 10.0073 6.995 10.3729 6.77505 10.6769C6.55509 10.9809 6.24488 11.2078 5.88854 11.3252C5.5322 11.4427 5.14788 11.4449 4.79027 11.3313C4.43266 11.2177 4.11996 10.9943 3.89667 10.6928C3.67338 10.3912 3.55088 10.027 3.54658 9.65178C3.54228 9.2766 3.65641 8.90961 3.87273 8.60304C4.08905 8.29647 4.39655 8.06592 4.75147 7.94421C5.10638 7.82249 5.49065 7.81581 5.84959 7.9251V5.62549C5.67661 5.60382 5.50243 5.59326 5.3281 5.59385C4.52908 5.59408 3.74807 5.83125 3.08384 6.27536C2.41961 6.71948 1.902 7.35059 1.59646 8.08888C1.29092 8.82718 1.21118 9.6395 1.36731 10.4231C1.52345 11.2067 1.90846 11.9265 2.47364 12.4913C3.03883 13.0561 3.75881 13.4406 4.54253 13.5962C5.32625 13.7518 6.13852 13.6715 6.87661 13.3655C7.6147 13.0594 8.24546 12.5414 8.68912 11.8769C9.13279 11.2123 9.36943 10.4312 9.36912 9.63213C9.36912 9.57549 9.36912 9.51924 9.36521 9.46338V5.18799C10.4023 6.13682 12.3738 6.21885 12.3738 6.21885Z" fill="white"/>
<path d="M8.75854 0.949707C8.86714 1.54111 9.18433 2.46572 10.1089 3.00674C9.4023 2.18369 9.36675 1.12158 9.36675 0.968457V0.949707H8.75854Z" fill="#FF004F"/>
<path d="M12.3738 6.21875V3.98828C12.1507 3.98011 11.9287 3.95398 11.7098 3.91016V5.66602C11.7098 5.66602 9.73828 5.58516 8.70195 4.63633V8.91055C8.7043 8.96641 8.70586 9.02266 8.70586 9.0793C8.70576 9.8102 8.50739 10.5274 8.13188 11.1545C7.75637 11.7815 7.21779 12.295 6.57351 12.6401C5.92923 12.9853 5.20339 13.1492 4.47332 13.1144C3.74324 13.0796 3.03627 12.8474 2.42773 12.4426C2.98738 13.0205 3.70686 13.4182 4.49398 13.5847C5.28109 13.7511 6.09998 13.6787 6.84569 13.3768C7.59141 13.0749 8.22997 12.5571 8.67955 11.89C9.12914 11.2228 9.36926 10.4366 9.36914 9.63203C9.36914 9.57539 9.36914 9.51914 9.36523 9.46328V5.18789C10.4023 6.13672 12.3738 6.21875 12.3738 6.21875Z" fill="#FF004F"/>
<path d="M5.18628 7.37229C4.7562 7.24112 4.29246 7.27712 3.88778 7.47308C3.4831 7.66904 3.16729 8.01053 3.00349 8.42926C2.8397 8.848 2.83999 9.31313 3.00431 9.73167C3.16863 10.1502 3.48486 10.4913 3.88979 10.6867C3.66851 10.3845 3.54794 10.0203 3.54517 9.64566C3.5424 9.27106 3.65757 8.90509 3.87436 8.59959C4.09115 8.29408 4.39857 8.06454 4.75307 7.94347C5.10757 7.8224 5.49118 7.81595 5.84956 7.92502V5.62541C5.67658 5.60375 5.5024 5.59318 5.32807 5.59377C5.28003 5.59377 5.23276 5.59377 5.1851 5.59651L5.18628 7.37229Z" fill="#FF004F"/>
</svg>
