<svg width="43" height="14" viewBox="0 0 43 14" fill="none" xmlns="http://www.w3.org/2000/svg">
<path d="M39.6415 0.186768H36.9697C36.1619 0.186768 35.5406 0.435306 35.1678 1.24305L30.0728 12.8622H33.6766C33.6766 12.8622 34.2979 11.3088 34.4222 10.936C34.795 10.936 38.3366 10.936 38.8337 10.936C38.958 11.371 39.2687 12.8001 39.2687 12.8001H42.4997L39.6415 0.186768ZM35.4163 8.32639C35.727 7.58077 36.7833 4.78472 36.7833 4.78472C36.7833 4.84686 37.094 4.03911 37.2182 3.60417L37.4668 4.72259C37.4668 4.72259 38.1502 7.76718 38.2745 8.38852H35.4163V8.32639Z" fill="#3362AB"/>
<path d="M30.3223 8.69883C30.3223 11.3085 27.9611 13.0482 24.2952 13.0482C22.7418 13.0482 21.2506 12.7376 20.4429 12.3648L20.9399 9.50658L21.3749 9.69298C22.4933 10.1901 23.2389 10.3765 24.6059 10.3765C25.6 10.3765 26.6563 10.0037 26.6563 9.13377C26.6563 8.57456 26.2214 8.20175 24.8544 7.58041C23.5496 6.95906 21.8098 5.96491 21.8098 4.16301C21.8098 1.67763 24.2331 0 27.6505 0C28.9553 0 30.0737 0.248538 30.7572 0.559211L30.2601 3.29313L30.0116 3.04459C29.3902 2.79605 28.5825 2.54751 27.4019 2.54751C26.0971 2.60965 25.4758 3.16886 25.4758 3.66594C25.4758 4.22515 26.2214 4.66009 27.4019 5.2193C29.3902 6.15132 30.3223 7.2076 30.3223 8.69883Z" fill="#3362AB"/>
<path d="M0 0.310794L0.0621345 0.0622559H5.4057C6.15132 0.0622559 6.71053 0.310794 6.89693 1.11854L8.07748 6.71065C6.89693 3.72819 4.16301 1.30495 0 0.310794Z" fill="#F9B50B"/>
<path d="M15.5963 0.186646L10.1906 12.8H6.52469L3.41797 2.23708C5.65481 3.66618 7.51885 5.90302 8.20233 7.45638L8.57513 8.76121L11.9304 0.124512H15.5963V0.186646Z" fill="#3362AB"/>
<path d="M17.0248 0.124512H20.4422L18.2675 12.8H14.8501L17.0248 0.124512Z" fill="#3362AB"/>
</svg>
